<svg width="1638" height="426" viewBox="0 0 1638 426" fill="none" xmlns="http://www.w3.org/2000/svg">
<path d="M235.559 281L-0.000534058 417V145L235.559 281Z" fill="#D9D9D9"/>
<path d="M235.734 280.992L471.467 144.999V416.998L235.734 280.992Z" fill="#49416D"/>
<path d="M471.465 145.001L235.732 281.002V9.00195L471.465 145.001Z" fill="#8C92AC"/>
<path d="M0 145.001L235.733 9L235.733 281L0 145.001Z" fill="#A1CCA5"/>
<path d="M235.734 280.996L0.00209045 416.988L0.00209045 144.99L235.734 280.996Z" fill="#8C92AC"/>
<mask id="path-6-outside-1_1391_57" maskUnits="userSpaceOnUse" x="521.008" y="111" width="1110" height="182" fill="black">
<rect fill="white" x="521.008" y="111" width="1110" height="182"/>
<path d="M572.52 289V152.468H522.896V119.91H664.417V152.468H614.793V289H572.52ZM705.077 291.626C697.2 291.626 689.848 290.225 683.022 287.425C676.37 284.624 671.031 280.335 667.005 274.559C662.979 268.608 660.966 261.256 660.966 252.504C660.966 239.726 665.255 229.749 673.832 222.572C682.584 215.22 695.625 211.544 712.954 211.544H747.612V208.656C747.612 202.355 745.511 197.891 741.31 195.266C737.109 192.465 729.232 191.065 717.68 191.065C703.501 191.065 689.586 193.253 675.932 197.629V170.322C682.059 167.872 689.498 165.859 698.25 164.283C707.177 162.708 716.542 161.92 726.344 161.92C745.599 161.92 760.652 165.859 771.505 173.735C782.532 181.612 788.046 194.128 788.046 211.282V289H751.025L748.925 278.498C744.373 282.699 738.51 285.937 731.333 288.212C724.331 290.488 715.579 291.626 705.077 291.626ZM718.467 265.632C725.119 265.632 730.895 264.494 735.796 262.219C740.698 259.943 744.636 257.055 747.612 253.554V235.963H717.68C705.252 235.963 699.038 240.951 699.038 250.929C699.038 255.48 700.613 259.068 703.764 261.694C706.915 264.319 711.816 265.632 718.467 265.632ZM859.607 291.626C849.629 291.626 840.177 290.925 831.25 289.525C822.323 288.125 815.234 286.374 809.982 284.274V251.979C816.109 254.604 823.198 256.617 831.25 258.018C839.302 259.418 846.478 260.118 852.78 260.118C860.307 260.118 865.733 259.768 869.059 259.068C872.56 258.368 874.31 256.442 874.31 253.292C874.31 249.791 871.509 247.165 865.908 245.415C860.307 243.664 852.605 241.126 842.803 237.801C831.425 233.775 822.76 229.136 816.809 223.885C811.033 218.458 808.144 210.494 808.144 199.992C808.144 187.739 812.696 178.374 821.798 171.898C831.075 165.246 845.778 161.92 865.908 161.92C873.785 161.92 881.574 162.533 889.276 163.758C896.978 164.983 903.279 166.384 908.18 167.959V199.729C903.279 197.454 897.678 195.791 891.376 194.74C885.075 193.69 879.386 193.165 874.31 193.165C867.833 193.165 862.32 193.603 857.769 194.478C853.393 195.178 851.205 197.016 851.205 199.992C851.205 203.317 853.655 205.68 858.556 207.081C863.457 208.306 870.547 210.407 879.824 213.382C889.626 216.358 897.24 219.596 902.667 223.097C908.093 226.423 911.944 230.449 914.219 235.175C916.495 239.901 917.633 245.852 917.633 253.029C917.633 265.457 912.731 274.997 902.929 281.648C893.127 288.3 878.686 291.626 859.607 291.626ZM939.036 289V112.034H981.308V204.455L1022 164.546H1070.05L1020.17 216.27L1072.94 289H1028.04L993.648 238.588L981.308 250.666V289H939.036ZM1083.65 289V119.91H1206.53V152.468H1125.92V187.914H1196.81V220.997H1125.92V289H1083.65ZM1261.21 291.626C1247.56 291.626 1237.76 288.65 1231.81 282.699C1225.85 276.747 1222.88 267.207 1222.88 254.079V112.034H1265.15V249.878C1265.15 253.904 1265.94 256.705 1267.51 258.28C1269.26 259.681 1271.8 260.381 1275.13 260.381C1279.85 260.381 1284.06 259.768 1287.73 258.543V287.162C1283.71 288.737 1279.68 289.875 1275.65 290.575C1271.8 291.276 1266.99 291.626 1261.21 291.626ZM1368.5 291.626C1344.52 291.626 1326.84 286.112 1315.46 275.084C1304.08 263.882 1298.4 247.778 1298.4 226.773C1298.4 205.943 1304.08 189.927 1315.46 178.724C1327.02 167.522 1344.69 161.92 1368.5 161.92C1392.48 161.92 1410.16 167.522 1421.54 178.724C1433.09 189.927 1438.87 205.943 1438.87 226.773C1438.87 247.778 1433.18 263.882 1421.8 275.084C1410.42 286.112 1392.66 291.626 1368.5 291.626ZM1368.5 258.543C1378.3 258.543 1385.3 256.092 1389.5 251.191C1393.71 246.29 1395.81 238.151 1395.81 226.773C1395.81 215.395 1393.71 207.256 1389.5 202.355C1385.3 197.454 1378.3 195.003 1368.5 195.003C1358.87 195.003 1351.96 197.454 1347.76 202.355C1343.56 207.256 1341.46 215.395 1341.46 226.773C1341.46 238.151 1343.56 246.29 1347.76 251.191C1351.96 256.092 1358.87 258.543 1368.5 258.543ZM1476.09 289L1443.27 164.546H1484.75L1501.56 235.963L1519.15 181.612V164.546H1550.92L1571.4 235.963L1587.68 164.546H1629.16L1596.34 289H1558.01L1536.74 224.41L1514.95 289H1476.09Z"/>
</mask>
<path d="M572.52 289V152.468H522.896V119.91H664.417V152.468H614.793V289H572.52ZM705.077 291.626C697.2 291.626 689.848 290.225 683.022 287.425C676.37 284.624 671.031 280.335 667.005 274.559C662.979 268.608 660.966 261.256 660.966 252.504C660.966 239.726 665.255 229.749 673.832 222.572C682.584 215.22 695.625 211.544 712.954 211.544H747.612V208.656C747.612 202.355 745.511 197.891 741.31 195.266C737.109 192.465 729.232 191.065 717.68 191.065C703.501 191.065 689.586 193.253 675.932 197.629V170.322C682.059 167.872 689.498 165.859 698.25 164.283C707.177 162.708 716.542 161.92 726.344 161.92C745.599 161.92 760.652 165.859 771.505 173.735C782.532 181.612 788.046 194.128 788.046 211.282V289H751.025L748.925 278.498C744.373 282.699 738.51 285.937 731.333 288.212C724.331 290.488 715.579 291.626 705.077 291.626ZM718.467 265.632C725.119 265.632 730.895 264.494 735.796 262.219C740.698 259.943 744.636 257.055 747.612 253.554V235.963H717.68C705.252 235.963 699.038 240.951 699.038 250.929C699.038 255.48 700.613 259.068 703.764 261.694C706.915 264.319 711.816 265.632 718.467 265.632ZM859.607 291.626C849.629 291.626 840.177 290.925 831.25 289.525C822.323 288.125 815.234 286.374 809.982 284.274V251.979C816.109 254.604 823.198 256.617 831.25 258.018C839.302 259.418 846.478 260.118 852.78 260.118C860.307 260.118 865.733 259.768 869.059 259.068C872.56 258.368 874.31 256.442 874.31 253.292C874.31 249.791 871.509 247.165 865.908 245.415C860.307 243.664 852.605 241.126 842.803 237.801C831.425 233.775 822.76 229.136 816.809 223.885C811.033 218.458 808.144 210.494 808.144 199.992C808.144 187.739 812.696 178.374 821.798 171.898C831.075 165.246 845.778 161.92 865.908 161.92C873.785 161.92 881.574 162.533 889.276 163.758C896.978 164.983 903.279 166.384 908.18 167.959V199.729C903.279 197.454 897.678 195.791 891.376 194.74C885.075 193.69 879.386 193.165 874.31 193.165C867.833 193.165 862.32 193.603 857.769 194.478C853.393 195.178 851.205 197.016 851.205 199.992C851.205 203.317 853.655 205.68 858.556 207.081C863.457 208.306 870.547 210.407 879.824 213.382C889.626 216.358 897.24 219.596 902.667 223.097C908.093 226.423 911.944 230.449 914.219 235.175C916.495 239.901 917.633 245.852 917.633 253.029C917.633 265.457 912.731 274.997 902.929 281.648C893.127 288.3 878.686 291.626 859.607 291.626ZM939.036 289V112.034H981.308V204.455L1022 164.546H1070.05L1020.17 216.27L1072.94 289H1028.04L993.648 238.588L981.308 250.666V289H939.036ZM1083.65 289V119.91H1206.53V152.468H1125.92V187.914H1196.81V220.997H1125.92V289H1083.65ZM1261.21 291.626C1247.56 291.626 1237.76 288.65 1231.81 282.699C1225.85 276.747 1222.88 267.207 1222.88 254.079V112.034H1265.15V249.878C1265.15 253.904 1265.94 256.705 1267.51 258.28C1269.26 259.681 1271.8 260.381 1275.13 260.381C1279.85 260.381 1284.06 259.768 1287.73 258.543V287.162C1283.71 288.737 1279.68 289.875 1275.65 290.575C1271.8 291.276 1266.99 291.626 1261.21 291.626ZM1368.5 291.626C1344.52 291.626 1326.84 286.112 1315.46 275.084C1304.08 263.882 1298.4 247.778 1298.4 226.773C1298.4 205.943 1304.08 189.927 1315.46 178.724C1327.02 167.522 1344.69 161.92 1368.5 161.92C1392.48 161.92 1410.16 167.522 1421.54 178.724C1433.09 189.927 1438.87 205.943 1438.87 226.773C1438.87 247.778 1433.18 263.882 1421.8 275.084C1410.42 286.112 1392.66 291.626 1368.5 291.626ZM1368.5 258.543C1378.3 258.543 1385.3 256.092 1389.5 251.191C1393.71 246.29 1395.81 238.151 1395.81 226.773C1395.81 215.395 1393.71 207.256 1389.5 202.355C1385.3 197.454 1378.3 195.003 1368.5 195.003C1358.87 195.003 1351.96 197.454 1347.76 202.355C1343.56 207.256 1341.46 215.395 1341.46 226.773C1341.46 238.151 1343.56 246.29 1347.76 251.191C1351.96 256.092 1358.87 258.543 1368.5 258.543ZM1476.09 289L1443.27 164.546H1484.75L1501.56 235.963L1519.15 181.612V164.546H1550.92L1571.4 235.963L1587.68 164.546H1629.16L1596.34 289H1558.01L1536.74 224.41L1514.95 289H1476.09Z" fill="#49416D"/>
<path d="M572.52 289H571.52V290H572.52V289ZM572.52 152.468H573.52V151.468H572.52V152.468ZM522.896 152.468H521.896V153.468H522.896V152.468ZM522.896 119.91V118.91H521.896V119.91H522.896ZM664.417 119.91H665.417V118.91H664.417V119.91ZM664.417 152.468V153.468H665.417V152.468H664.417ZM614.793 152.468V151.468H613.793V152.468H614.793ZM614.793 289V290H615.793V289H614.793ZM573.52 289V152.468H571.52V289H573.52ZM572.52 151.468H522.896V153.468H572.52V151.468ZM523.896 152.468V119.91H521.896V152.468H523.896ZM522.896 120.91H664.417V118.91H522.896V120.91ZM663.417 119.91V152.468H665.417V119.91H663.417ZM664.417 151.468H614.793V153.468H664.417V151.468ZM613.793 152.468V289H615.793V152.468H613.793ZM614.793 288H572.52V290H614.793V288ZM683.022 287.425L682.634 288.346L682.642 288.35L683.022 287.425ZM667.005 274.559L666.177 275.119L666.185 275.131L667.005 274.559ZM673.832 222.572L674.474 223.339L674.475 223.338L673.832 222.572ZM747.612 211.544V212.544H748.612V211.544H747.612ZM741.31 195.266L740.756 196.098L740.768 196.106L740.78 196.114L741.31 195.266ZM675.932 197.629H674.932V198.999L676.238 198.581L675.932 197.629ZM675.932 170.322L675.561 169.394L674.932 169.645V170.322H675.932ZM698.25 164.283L698.076 163.298L698.073 163.299L698.25 164.283ZM771.505 173.735L770.917 174.545L770.924 174.549L771.505 173.735ZM788.046 289V290H789.046V289H788.046ZM751.025 289L750.044 289.196L750.205 290H751.025V289ZM748.925 278.498L749.905 278.301L749.556 276.554L748.246 277.763L748.925 278.498ZM731.333 288.212L731.031 287.259L731.024 287.261L731.333 288.212ZM735.796 262.219L735.375 261.312L735.796 262.219ZM747.612 253.554L748.374 254.202L748.612 253.922V253.554H747.612ZM747.612 235.963H748.612V234.963H747.612V235.963ZM703.764 261.694L703.124 262.462L703.764 261.694ZM705.077 290.626C697.321 290.626 690.099 289.247 683.401 286.499L682.642 288.35C689.597 291.203 697.079 292.626 705.077 292.626V290.626ZM683.41 286.503C676.928 283.774 671.741 279.604 667.826 273.987L666.185 275.131C670.322 281.066 675.812 285.474 682.634 288.346L683.41 286.503ZM667.834 273.999C663.942 268.246 661.966 261.1 661.966 252.504H659.966C659.966 261.412 662.017 268.97 666.177 275.119L667.834 273.999ZM661.966 252.504C661.966 239.975 666.158 230.297 674.474 223.339L673.19 221.805C664.352 229.2 659.966 239.477 659.966 252.504H661.966ZM674.475 223.338C682.974 216.198 695.743 212.544 712.954 212.544V210.544C695.506 210.544 682.194 214.242 673.189 221.806L674.475 223.338ZM712.954 212.544H747.612V210.544H712.954V212.544ZM748.612 211.544V208.656H746.612V211.544H748.612ZM748.612 208.656C748.612 202.117 746.414 197.276 741.84 194.418L740.78 196.114C744.608 198.506 746.612 202.593 746.612 208.656H748.612ZM741.865 194.433C739.602 192.925 736.431 191.842 732.427 191.13C728.412 190.416 723.491 190.065 717.68 190.065V192.065C723.421 192.065 728.215 192.413 732.077 193.099C735.95 193.788 738.817 194.805 740.756 196.098L741.865 194.433ZM717.68 190.065C703.397 190.065 689.378 192.269 675.627 196.676L676.238 198.581C689.793 194.236 703.606 192.065 717.68 192.065V190.065ZM676.932 197.629V170.322H674.932V197.629H676.932ZM676.304 171.251C682.35 168.832 689.72 166.835 698.427 165.267L698.073 163.299C689.276 164.883 681.768 166.911 675.561 169.394L676.304 171.251ZM698.424 165.268C707.289 163.704 716.596 162.92 726.344 162.92V160.92C716.488 160.92 707.065 161.712 698.076 163.298L698.424 165.268ZM726.344 162.92C745.476 162.92 760.296 166.835 770.917 174.545L772.092 172.926C761.009 164.882 745.721 160.92 726.344 160.92V162.92ZM770.924 174.549C781.619 182.189 787.046 194.355 787.046 211.282H789.046C789.046 193.9 783.446 181.036 772.086 172.922L770.924 174.549ZM787.046 211.282V289H789.046V211.282H787.046ZM788.046 288H751.025V290H788.046V288ZM752.006 288.804L749.905 278.301L747.944 278.694L750.044 289.196L752.006 288.804ZM748.246 277.763C743.824 281.845 738.097 285.019 731.031 287.259L731.635 289.166C738.922 286.855 744.923 283.552 749.603 279.232L748.246 277.763ZM731.024 287.261C724.155 289.494 715.515 290.626 705.077 290.626V292.626C715.643 292.626 724.508 291.482 731.642 289.163L731.024 287.261ZM718.467 266.632C725.232 266.632 731.158 265.475 736.218 263.126L735.375 261.312C730.633 263.514 725.006 264.632 718.467 264.632V266.632ZM736.218 263.126C741.227 260.8 745.289 257.83 748.374 254.202L746.85 252.907C743.983 256.28 740.168 259.086 735.375 261.312L736.218 263.126ZM748.612 253.554V235.963H746.612V253.554H748.612ZM747.612 234.963H717.68V236.963H747.612V234.963ZM717.68 234.963C711.358 234.963 706.432 236.227 703.072 238.924C699.671 241.655 698.038 245.72 698.038 250.929H700.038C700.038 246.159 701.512 242.742 704.324 240.484C707.179 238.192 711.573 236.963 717.68 236.963V234.963ZM698.038 250.929C698.038 255.74 699.718 259.624 703.124 262.462L704.404 260.925C701.508 258.512 700.038 255.22 700.038 250.929H698.038ZM703.124 262.462C706.536 265.306 711.718 266.632 718.467 266.632V264.632C711.914 264.632 707.293 263.333 704.404 260.925L703.124 262.462ZM831.25 289.525L831.405 288.537L831.25 289.525ZM809.982 284.274H808.982V284.951L809.611 285.202L809.982 284.274ZM809.982 251.979L810.376 251.06L808.982 250.462V251.979H809.982ZM831.25 258.018L831.421 257.033L831.25 258.018ZM869.059 259.068L868.863 258.087L868.853 258.089L869.059 259.068ZM842.803 237.801L842.469 238.743L842.481 238.747L842.803 237.801ZM816.809 223.885L816.124 224.614L816.136 224.624L816.147 224.635L816.809 223.885ZM821.798 171.898L822.377 172.712L822.38 172.71L821.798 171.898ZM908.18 167.959H909.18V167.23L908.486 167.007L908.18 167.959ZM908.18 199.729L907.759 200.636L909.18 201.296V199.729H908.18ZM891.376 194.74L891.541 193.754L891.376 194.74ZM857.769 194.478L857.927 195.465L857.942 195.463L857.957 195.46L857.769 194.478ZM858.556 207.081L858.282 208.042L858.298 208.047L858.314 208.051L858.556 207.081ZM879.824 213.382L879.518 214.334L879.526 214.337L879.533 214.339L879.824 213.382ZM902.667 223.097L902.125 223.937L902.134 223.944L902.144 223.95L902.667 223.097ZM914.219 235.175L915.12 234.741L914.219 235.175ZM902.929 281.648L902.368 280.821L902.929 281.648ZM859.607 290.626C849.676 290.626 840.276 289.929 831.405 288.537L831.095 290.513C840.078 291.922 849.583 292.626 859.607 292.626V290.626ZM831.405 288.537C822.514 287.142 815.507 285.407 810.354 283.345L809.611 285.202C814.961 287.342 822.132 289.107 831.095 290.513L831.405 288.537ZM810.982 284.274V251.979H808.982V284.274H810.982ZM809.588 252.898C815.8 255.56 822.967 257.592 831.079 259.003L831.421 257.033C823.429 255.643 816.417 253.649 810.376 251.06L809.588 252.898ZM831.079 259.003C839.171 260.41 846.407 261.118 852.78 261.118V259.118C846.55 259.118 839.432 258.426 831.421 257.033L831.079 259.003ZM852.78 261.118C860.313 261.118 865.829 260.77 869.265 260.047L868.853 258.089C865.637 258.767 860.3 259.118 852.78 259.118V261.118ZM869.255 260.049C871.138 259.672 872.673 258.942 873.737 257.771C874.813 256.588 875.31 255.061 875.31 253.292H873.31C873.31 254.673 872.931 255.685 872.257 256.426C871.571 257.181 870.48 257.764 868.863 258.087L869.255 260.049ZM875.31 253.292C875.31 249.089 871.9 246.24 866.206 244.46L865.61 246.369C871.118 248.091 873.31 250.493 873.31 253.292H875.31ZM866.206 244.46C860.616 242.713 852.923 240.178 843.124 236.854L842.481 238.747C852.286 242.074 859.997 244.615 865.61 246.369L866.206 244.46ZM843.136 236.858C831.823 232.855 823.289 228.269 817.471 223.135L816.147 224.635C822.231 230.003 831.027 234.695 842.469 238.743L843.136 236.858ZM817.494 223.156C811.978 217.975 809.144 210.312 809.144 199.992H807.144C807.144 210.676 810.087 218.942 816.124 224.614L817.494 223.156ZM809.144 199.992C809.144 188.026 813.567 178.981 822.377 172.712L821.218 171.083C811.824 177.767 807.144 187.452 807.144 199.992H809.144ZM822.38 172.71C831.401 166.243 845.846 162.92 865.908 162.92V160.92C845.71 160.92 830.749 164.249 821.215 171.085L822.38 172.71ZM865.908 162.92C873.733 162.92 881.47 163.529 889.119 164.746L889.433 162.771C881.679 161.537 873.837 160.92 865.908 160.92V162.92ZM889.119 164.746C896.793 165.967 903.04 167.357 907.874 168.911L908.486 167.007C903.519 165.41 897.163 164 889.433 162.771L889.119 164.746ZM907.18 167.959V199.729H909.18V167.959H907.18ZM908.602 198.822C903.606 196.503 897.915 194.816 891.541 193.754L891.212 195.727C897.44 196.765 902.953 198.405 907.759 200.636L908.602 198.822ZM891.541 193.754C885.198 192.697 879.453 192.165 874.31 192.165V194.165C879.319 194.165 884.952 194.683 891.212 195.727L891.541 193.754ZM874.31 192.165C867.793 192.165 862.212 192.605 857.58 193.496L857.957 195.46C862.427 194.6 867.874 194.165 874.31 194.165V192.165ZM857.611 193.49C855.334 193.855 853.491 194.533 852.202 195.616C850.872 196.734 850.205 198.222 850.205 199.992H852.205C852.205 198.785 852.631 197.867 853.489 197.147C854.388 196.392 855.827 195.801 857.927 195.465L857.611 193.49ZM850.205 199.992C850.205 201.933 850.933 203.613 852.348 204.978C853.736 206.316 855.746 207.318 858.282 208.042L858.831 206.119C856.466 205.444 854.8 204.564 853.737 203.538C852.702 202.54 852.205 201.376 852.205 199.992H850.205ZM858.314 208.051C863.182 209.268 870.247 211.361 879.518 214.334L880.129 212.43C870.847 209.453 863.732 207.344 858.799 206.111L858.314 208.051ZM879.533 214.339C889.292 217.302 896.808 220.507 902.125 223.937L903.209 222.257C897.673 218.685 889.96 215.414 880.114 212.425L879.533 214.339ZM902.144 223.95C907.442 227.197 911.142 231.089 913.318 235.609L915.12 234.741C912.745 229.808 908.744 225.649 903.189 222.244L902.144 223.95ZM913.318 235.609C915.509 240.159 916.633 245.95 916.633 253.029H918.633C918.633 245.754 917.48 239.643 915.12 234.741L913.318 235.609ZM916.633 253.029C916.633 265.145 911.88 274.366 902.368 280.821L903.491 282.476C913.583 275.627 918.633 265.769 918.633 253.029H916.633ZM902.368 280.821C892.804 287.31 878.597 290.626 859.607 290.626V292.626C878.775 292.626 893.45 289.289 903.491 282.476L902.368 280.821ZM939.035 289H938.035V290H939.035V289ZM939.035 112.034V111.034H938.035V112.034H939.035ZM981.308 112.034H982.308V111.034H981.308V112.034ZM981.308 204.455H980.308V206.836L982.008 205.169L981.308 204.455ZM1022 164.546V163.546H1021.6L1021.3 163.832L1022 164.546ZM1070.05 164.546L1070.77 165.24L1072.41 163.546H1070.05V164.546ZM1020.17 216.27L1019.45 215.576L1018.87 216.179L1019.36 216.858L1020.17 216.27ZM1072.94 289V290H1074.9L1073.75 288.413L1072.94 289ZM1028.04 289L1027.22 289.564L1027.52 290H1028.04V289ZM993.648 238.588L994.474 238.025L993.802 237.039L992.949 237.874L993.648 238.588ZM981.308 250.666L980.608 249.951L980.308 250.245V250.666H981.308ZM981.308 289V290H982.308V289H981.308ZM940.035 289V112.034H938.035V289H940.035ZM939.035 113.034H981.308V111.034H939.035V113.034ZM980.308 112.034V204.455H982.308V112.034H980.308ZM982.008 205.169L1022.71 165.26L1021.3 163.832L980.608 203.741L982.008 205.169ZM1022 165.546H1070.05V163.546H1022V165.546ZM1069.33 163.852L1019.45 215.576L1020.89 216.965L1070.77 165.24L1069.33 163.852ZM1019.36 216.858L1072.13 289.587L1073.75 288.413L1020.98 215.683L1019.36 216.858ZM1072.94 288H1028.04V290H1072.94V288ZM1028.87 288.436L994.474 238.025L992.822 239.152L1027.22 289.564L1028.87 288.436ZM992.949 237.874L980.608 249.951L982.007 251.381L994.348 239.303L992.949 237.874ZM980.308 250.666V289H982.308V250.666H980.308ZM981.308 288H939.035V290H981.308V288ZM1083.65 289H1082.65V290H1083.65V289ZM1083.65 119.91V118.91H1082.65V119.91H1083.65ZM1206.53 119.91H1207.53V118.91H1206.53V119.91ZM1206.53 152.468V153.468H1207.53V152.468H1206.53ZM1125.92 152.468V151.468H1124.92V152.468H1125.92ZM1125.92 187.914H1124.92V188.914H1125.92V187.914ZM1196.81 187.914H1197.81V186.914H1196.81V187.914ZM1196.81 220.997V221.997H1197.81V220.997H1196.81ZM1125.92 220.997V219.997H1124.92V220.997H1125.92ZM1125.92 289V290H1126.92V289H1125.92ZM1084.65 289V119.91H1082.65V289H1084.65ZM1083.65 120.91H1206.53V118.91H1083.65V120.91ZM1205.53 119.91V152.468H1207.53V119.91H1205.53ZM1206.53 151.468H1125.92V153.468H1206.53V151.468ZM1124.92 152.468V187.914H1126.92V152.468H1124.92ZM1125.92 188.914H1196.81V186.914H1125.92V188.914ZM1195.81 187.914V220.997H1197.81V187.914H1195.81ZM1196.81 219.997H1125.92V221.997H1196.81V219.997ZM1124.92 220.997V289H1126.92V220.997H1124.92ZM1125.92 288H1083.65V290H1125.92V288ZM1231.81 282.699L1231.1 283.406L1231.81 282.699ZM1222.88 112.034V111.034H1221.88V112.034H1222.88ZM1265.15 112.034H1266.15V111.034H1265.15V112.034ZM1267.51 258.28L1266.81 258.987L1266.85 259.027L1266.89 259.061L1267.51 258.28ZM1287.73 258.543H1288.73V257.155L1287.42 257.594L1287.73 258.543ZM1287.73 287.162L1288.1 288.093L1288.73 287.845V287.162H1287.73ZM1275.65 290.575L1275.48 289.59L1275.47 289.591L1275.65 290.575ZM1261.21 290.626C1247.67 290.626 1238.19 287.667 1232.51 281.991L1231.1 283.406C1237.33 289.633 1247.45 292.626 1261.21 292.626V290.626ZM1232.51 281.991C1226.83 276.31 1223.88 267.087 1223.88 254.079H1221.88C1221.88 267.328 1224.88 277.185 1231.1 283.406L1232.51 281.991ZM1223.88 254.079V112.034H1221.88V254.079H1223.88ZM1222.88 113.034H1265.15V111.034H1222.88V113.034ZM1264.15 112.034V249.878H1266.15V112.034H1264.15ZM1264.15 249.878C1264.15 253.974 1264.94 257.121 1266.81 258.987L1268.22 257.573C1266.94 256.289 1266.15 253.834 1266.15 249.878H1264.15ZM1266.89 259.061C1268.89 260.658 1271.68 261.381 1275.13 261.381V259.381C1271.92 259.381 1269.64 258.704 1268.14 257.499L1266.89 259.061ZM1275.13 261.381C1279.94 261.381 1284.25 260.757 1288.05 259.492L1287.42 257.594C1283.86 258.779 1279.77 259.381 1275.13 259.381V261.381ZM1286.73 258.543V287.162H1288.73V258.543H1286.73ZM1287.37 286.231C1283.4 287.783 1279.44 288.902 1275.48 289.59L1275.83 291.561C1279.92 290.848 1284.01 289.692 1288.1 288.093L1287.37 286.231ZM1275.47 289.591C1271.7 290.277 1266.95 290.626 1261.21 290.626V292.626C1267.02 292.626 1271.9 292.274 1275.83 291.559L1275.47 289.591ZM1315.46 275.084L1314.76 275.797L1314.77 275.802L1315.46 275.084ZM1315.46 178.724L1314.77 178.006L1314.76 178.012L1315.46 178.724ZM1421.54 178.724L1420.84 179.437L1420.84 179.442L1421.54 178.724ZM1421.8 275.084L1422.5 275.802L1422.5 275.797L1421.8 275.084ZM1389.5 251.191L1390.26 251.842L1389.5 251.191ZM1389.5 202.355L1390.26 201.704L1389.5 202.355ZM1347.76 251.191L1348.52 250.54L1347.76 251.191ZM1368.5 290.626C1344.65 290.626 1327.27 285.139 1316.16 274.366L1314.77 275.802C1326.41 287.085 1344.39 292.626 1368.5 292.626V290.626ZM1316.16 274.372C1305.03 263.411 1299.4 247.598 1299.4 226.773H1297.4C1297.4 247.958 1303.14 264.352 1314.76 275.797L1316.16 274.372ZM1299.4 226.773C1299.4 206.126 1305.03 190.399 1316.16 179.437L1314.76 178.012C1303.14 189.455 1297.4 205.76 1297.4 226.773H1299.4ZM1316.16 179.442C1327.45 168.491 1344.83 162.92 1368.5 162.92V160.92C1344.56 160.92 1326.58 166.552 1314.77 178.006L1316.16 179.442ZM1368.5 162.92C1392.35 162.92 1409.72 168.493 1420.84 179.437L1422.24 178.012C1410.6 166.55 1392.61 160.92 1368.5 160.92V162.92ZM1420.84 179.442C1432.15 190.405 1437.87 206.13 1437.87 226.773H1439.87C1439.87 205.756 1434.03 189.448 1422.23 178.006L1420.84 179.442ZM1437.87 226.773C1437.87 247.598 1432.23 263.411 1421.1 274.372L1422.5 275.797C1434.12 264.352 1439.87 247.958 1439.87 226.773H1437.87ZM1421.1 274.366C1409.99 285.138 1392.53 290.626 1368.5 290.626V292.626C1392.78 292.626 1410.85 287.086 1422.5 275.802L1421.1 274.366ZM1368.5 259.543C1378.44 259.543 1385.79 257.059 1390.26 251.842L1388.75 250.54C1384.82 255.126 1378.16 257.543 1368.5 257.543V259.543ZM1390.26 251.842C1394.7 246.665 1396.81 238.225 1396.81 226.773H1394.81C1394.81 238.076 1392.71 245.915 1388.75 250.54L1390.26 251.842ZM1396.81 226.773C1396.81 215.321 1394.7 206.881 1390.26 201.704L1388.75 203.005C1392.71 207.631 1394.81 215.47 1394.81 226.773H1396.81ZM1390.26 201.704C1385.79 196.487 1378.44 194.003 1368.5 194.003V196.003C1378.16 196.003 1384.82 198.42 1388.75 203.005L1390.26 201.704ZM1368.5 194.003C1358.73 194.003 1351.47 196.49 1347 201.704L1348.52 203.005C1352.45 198.417 1359.02 196.003 1368.5 196.003V194.003ZM1347 201.704C1342.56 206.881 1340.46 215.321 1340.46 226.773H1342.46C1342.46 215.47 1344.55 207.631 1348.52 203.005L1347 201.704ZM1340.46 226.773C1340.46 238.225 1342.56 246.665 1347 251.842L1348.52 250.54C1344.55 245.915 1342.46 238.076 1342.46 226.773H1340.46ZM1347 251.842C1351.47 257.055 1358.73 259.543 1368.5 259.543V257.543C1359.02 257.543 1352.45 255.129 1348.52 250.54L1347 251.842ZM1476.09 289L1475.12 289.255L1475.32 290H1476.09V289ZM1443.27 164.546V163.546H1441.97L1442.3 164.801L1443.27 164.546ZM1484.75 164.546L1485.72 164.317L1485.54 163.546H1484.75V164.546ZM1501.56 235.963L1500.58 236.192L1501.4 239.681L1502.51 236.271L1501.56 235.963ZM1519.15 181.612L1520.1 181.92L1520.15 181.77V181.612H1519.15ZM1519.15 164.546V163.546H1518.15V164.546H1519.15ZM1550.92 164.546L1551.88 164.27L1551.67 163.546H1550.92V164.546ZM1571.4 235.963L1570.44 236.238L1572.37 236.185L1571.4 235.963ZM1587.68 164.546V163.546H1586.88L1586.7 164.324L1587.68 164.546ZM1629.16 164.546L1630.13 164.801L1630.46 163.546H1629.16V164.546ZM1596.34 289V290H1597.11L1597.31 289.255L1596.34 289ZM1558.01 289L1557.06 289.313L1557.28 290H1558.01V289ZM1536.74 224.41L1537.69 224.097L1536.75 221.248L1535.79 224.09L1536.74 224.41ZM1514.95 289V290H1515.66L1515.89 289.32L1514.95 289ZM1477.05 288.745L1444.23 164.291L1442.3 164.801L1475.12 289.255L1477.05 288.745ZM1443.27 165.546H1484.75V163.546H1443.27V165.546ZM1483.78 164.775L1500.58 236.192L1502.53 235.734L1485.72 164.317L1483.78 164.775ZM1502.51 236.271L1520.1 181.92L1518.2 181.304L1500.6 235.655L1502.51 236.271ZM1520.15 181.612V164.546H1518.15V181.612H1520.15ZM1519.15 165.546H1550.92V163.546H1519.15V165.546ZM1549.96 164.821L1570.44 236.238L1572.36 235.687L1551.88 164.27L1549.96 164.821ZM1572.37 236.185L1588.65 164.768L1586.7 164.324L1570.42 235.74L1572.37 236.185ZM1587.68 165.546H1629.16V163.546H1587.68V165.546ZM1628.19 164.291L1595.37 288.745L1597.31 289.255L1630.13 164.801L1628.19 164.291ZM1596.34 288H1558.01V290H1596.34V288ZM1558.96 288.687L1537.69 224.097L1535.79 224.723L1557.06 289.313L1558.96 288.687ZM1535.79 224.09L1514 288.68L1515.89 289.32L1537.69 224.73L1535.79 224.09ZM1514.95 288H1476.09V290H1514.95V288Z" fill="black" mask="url(#path-6-outside-1_1391_57)"/>
<mask id="path-8-outside-2_1391_57" maskUnits="userSpaceOnUse" x="583.008" y="350" width="1008" height="50" fill="black">
<rect fill="white" x="583.008" y="350" width="1008" height="50"/>
<path d="M584.097 398V351.797H607.486C612.125 351.797 615.569 352.897 617.817 355.097C620.113 357.249 621.261 360.31 621.261 364.28C621.261 366.767 620.783 368.848 619.826 370.522C618.869 372.148 617.578 373.416 615.952 374.324C618.104 374.994 619.802 376.118 621.046 377.696C622.337 379.227 622.983 381.499 622.983 384.512C622.983 388.96 621.715 392.332 619.18 394.628C616.693 396.876 613.082 398 608.347 398H584.097ZM593.783 370.952H605.692C608.036 370.952 609.71 370.45 610.714 369.446C611.719 368.393 612.221 366.935 612.221 365.069C612.221 363.013 611.695 361.482 610.643 360.478C609.638 359.473 607.749 358.971 604.975 358.971H593.783V370.952ZM593.783 390.897H606.051C608.49 390.897 610.284 390.395 611.432 389.391C612.58 388.386 613.154 386.617 613.154 384.082C613.154 382.025 612.58 380.494 611.432 379.49C610.332 378.486 608.323 377.983 605.405 377.983H593.783V390.897ZM680.144 398.717C665.174 398.717 657.688 390.849 657.688 375.114C657.688 366.648 659.578 360.526 663.356 356.747C667.135 352.968 672.731 351.079 680.144 351.079C687.558 351.079 693.154 352.968 696.933 356.747C700.711 360.526 702.6 366.648 702.6 375.114C702.6 390.849 695.115 398.717 680.144 398.717ZM680.144 390.467C684.497 390.467 687.678 389.223 689.686 386.736C691.743 384.201 692.771 380.327 692.771 375.114C692.771 369.326 691.743 365.261 689.686 362.917C687.678 360.526 684.497 359.33 680.144 359.33C675.792 359.33 672.587 360.526 670.531 362.917C668.522 365.261 667.517 369.326 667.517 375.114C667.517 380.327 668.522 384.201 670.531 386.736C672.587 389.223 675.792 390.467 680.144 390.467ZM759.795 398.717C744.824 398.717 737.339 390.849 737.339 375.114C737.339 366.648 739.228 360.526 743.006 356.747C746.785 352.968 752.381 351.079 759.795 351.079C767.208 351.079 772.804 352.968 776.583 356.747C780.361 360.526 782.251 366.648 782.251 375.114C782.251 390.849 774.765 398.717 759.795 398.717ZM759.795 390.467C764.147 390.467 767.328 389.223 769.337 386.736C771.393 384.201 772.422 380.327 772.422 375.114C772.422 369.326 771.393 365.261 769.337 362.917C767.328 360.526 764.147 359.33 759.795 359.33C755.442 359.33 752.238 360.526 750.181 362.917C748.172 365.261 747.168 369.326 747.168 375.114C747.168 380.327 748.172 384.201 750.181 386.736C752.238 389.223 755.442 390.467 759.795 390.467ZM832.773 398.717C829.807 398.717 827.033 398.502 824.45 398.072C821.915 397.641 819.715 397.019 817.85 396.206V387.669C819.954 388.53 822.226 389.223 824.666 389.749C827.105 390.276 829.496 390.539 831.84 390.539C835.188 390.539 837.651 390.228 839.23 389.606C840.808 388.984 841.597 387.573 841.597 385.373C841.597 383.986 841.262 382.886 840.593 382.073C839.923 381.26 838.751 380.542 837.077 379.92C835.451 379.251 833.131 378.509 830.118 377.696C825.287 376.357 821.891 374.683 819.93 372.674C817.969 370.665 816.989 367.891 816.989 364.352C816.989 360.095 818.543 356.819 821.652 354.523C824.761 352.227 829.281 351.079 835.212 351.079C837.986 351.079 840.569 351.271 842.96 351.653C845.352 352.036 847.289 352.49 848.772 353.016V361.554C844.85 360.071 840.76 359.33 836.503 359.33C833.49 359.33 831.123 359.665 829.401 360.334C827.679 360.956 826.818 362.295 826.818 364.352C826.818 365.548 827.129 366.504 827.751 367.222C828.372 367.939 829.425 368.585 830.907 369.159C832.438 369.733 834.566 370.378 837.293 371.096C841.071 372.1 843.989 373.296 846.045 374.683C848.102 376.07 849.513 377.649 850.278 379.418C851.091 381.188 851.498 383.173 851.498 385.373C851.498 389.391 849.967 392.619 846.906 395.058C843.845 397.498 839.134 398.717 832.773 398.717ZM896.798 398V359.258H882.593V351.797H920.617V359.258H906.484V398H896.798ZM1000.55 398V351.797H1010.31L1023.87 379.562L1037.43 351.797H1047.12V398H1037.43V367.939L1026.67 390.036H1021.07L1010.24 367.939V398H1000.55ZM1105.71 398.717C1090.74 398.717 1083.25 390.849 1083.25 375.114C1083.25 366.648 1085.14 360.526 1088.92 356.747C1092.7 352.968 1098.3 351.079 1105.71 351.079C1113.12 351.079 1118.72 352.968 1122.5 356.747C1126.28 360.526 1128.16 366.648 1128.16 375.114C1128.16 390.849 1120.68 398.717 1105.71 398.717ZM1105.71 390.467C1110.06 390.467 1113.24 389.223 1115.25 386.736C1117.31 384.201 1118.34 380.327 1118.34 375.114C1118.34 369.326 1117.31 365.261 1115.25 362.917C1113.24 360.526 1110.06 359.33 1105.71 359.33C1101.36 359.33 1098.15 360.526 1096.1 362.917C1094.09 365.261 1093.08 369.326 1093.08 375.114C1093.08 380.327 1094.09 384.201 1096.1 386.736C1098.15 389.223 1101.36 390.467 1105.71 390.467ZM1164.34 398V351.797H1174.1L1187.65 379.562L1201.21 351.797H1210.9V398H1201.21V367.939L1190.45 390.036H1184.86L1174.02 367.939V398H1164.34ZM1248.47 398V351.797H1281.62V359.33H1258.16V371.168H1278.96V378.629H1258.16V390.539H1281.62V398H1248.47ZM1317.75 398V351.797H1326.15L1348.03 382.575V351.797H1357.71V398H1349.32L1327.44 367.222V398H1317.75ZM1406.64 398V359.258H1392.43V351.797H1430.46V359.258H1416.32V398H1406.64ZM1485.52 398.717C1479.16 398.717 1474.11 397.187 1470.38 394.126C1466.7 391.017 1464.85 386.521 1464.85 380.638V351.797H1474.54V379.92C1474.54 383.46 1475.5 386.114 1477.41 387.884C1479.32 389.606 1482.03 390.467 1485.52 390.467C1489.01 390.467 1491.69 389.606 1493.55 387.884C1495.47 386.114 1496.42 383.46 1496.42 379.92V351.797H1506.11V380.638C1506.11 386.521 1504.27 391.017 1500.58 394.126C1496.9 397.187 1491.88 398.717 1485.52 398.717ZM1543.32 398V351.797H1553.08L1566.64 379.562L1580.2 351.797H1589.88V398H1580.2V367.939L1569.44 390.036H1563.84L1553.01 367.939V398H1543.32Z"/>
</mask>
<path d="M584.097 398V351.797H607.486C612.125 351.797 615.569 352.897 617.817 355.097C620.113 357.249 621.261 360.31 621.261 364.28C621.261 366.767 620.783 368.848 619.826 370.522C618.869 372.148 617.578 373.416 615.952 374.324C618.104 374.994 619.802 376.118 621.046 377.696C622.337 379.227 622.983 381.499 622.983 384.512C622.983 388.96 621.715 392.332 619.18 394.628C616.693 396.876 613.082 398 608.347 398H584.097ZM593.783 370.952H605.692C608.036 370.952 609.71 370.45 610.714 369.446C611.719 368.393 612.221 366.935 612.221 365.069C612.221 363.013 611.695 361.482 610.643 360.478C609.638 359.473 607.749 358.971 604.975 358.971H593.783V370.952ZM593.783 390.897H606.051C608.49 390.897 610.284 390.395 611.432 389.391C612.58 388.386 613.154 386.617 613.154 384.082C613.154 382.025 612.58 380.494 611.432 379.49C610.332 378.486 608.323 377.983 605.405 377.983H593.783V390.897ZM680.144 398.717C665.174 398.717 657.688 390.849 657.688 375.114C657.688 366.648 659.578 360.526 663.356 356.747C667.135 352.968 672.731 351.079 680.144 351.079C687.558 351.079 693.154 352.968 696.933 356.747C700.711 360.526 702.6 366.648 702.6 375.114C702.6 390.849 695.115 398.717 680.144 398.717ZM680.144 390.467C684.497 390.467 687.678 389.223 689.686 386.736C691.743 384.201 692.771 380.327 692.771 375.114C692.771 369.326 691.743 365.261 689.686 362.917C687.678 360.526 684.497 359.33 680.144 359.33C675.792 359.33 672.587 360.526 670.531 362.917C668.522 365.261 667.517 369.326 667.517 375.114C667.517 380.327 668.522 384.201 670.531 386.736C672.587 389.223 675.792 390.467 680.144 390.467ZM759.795 398.717C744.824 398.717 737.339 390.849 737.339 375.114C737.339 366.648 739.228 360.526 743.006 356.747C746.785 352.968 752.381 351.079 759.795 351.079C767.208 351.079 772.804 352.968 776.583 356.747C780.361 360.526 782.251 366.648 782.251 375.114C782.251 390.849 774.765 398.717 759.795 398.717ZM759.795 390.467C764.147 390.467 767.328 389.223 769.337 386.736C771.393 384.201 772.422 380.327 772.422 375.114C772.422 369.326 771.393 365.261 769.337 362.917C767.328 360.526 764.147 359.33 759.795 359.33C755.442 359.33 752.238 360.526 750.181 362.917C748.172 365.261 747.168 369.326 747.168 375.114C747.168 380.327 748.172 384.201 750.181 386.736C752.238 389.223 755.442 390.467 759.795 390.467ZM832.773 398.717C829.807 398.717 827.033 398.502 824.45 398.072C821.915 397.641 819.715 397.019 817.85 396.206V387.669C819.954 388.53 822.226 389.223 824.666 389.749C827.105 390.276 829.496 390.539 831.84 390.539C835.188 390.539 837.651 390.228 839.23 389.606C840.808 388.984 841.597 387.573 841.597 385.373C841.597 383.986 841.262 382.886 840.593 382.073C839.923 381.26 838.751 380.542 837.077 379.92C835.451 379.251 833.131 378.509 830.118 377.696C825.287 376.357 821.891 374.683 819.93 372.674C817.969 370.665 816.989 367.891 816.989 364.352C816.989 360.095 818.543 356.819 821.652 354.523C824.761 352.227 829.281 351.079 835.212 351.079C837.986 351.079 840.569 351.271 842.96 351.653C845.352 352.036 847.289 352.49 848.772 353.016V361.554C844.85 360.071 840.76 359.33 836.503 359.33C833.49 359.33 831.123 359.665 829.401 360.334C827.679 360.956 826.818 362.295 826.818 364.352C826.818 365.548 827.129 366.504 827.751 367.222C828.372 367.939 829.425 368.585 830.907 369.159C832.438 369.733 834.566 370.378 837.293 371.096C841.071 372.1 843.989 373.296 846.045 374.683C848.102 376.07 849.513 377.649 850.278 379.418C851.091 381.188 851.498 383.173 851.498 385.373C851.498 389.391 849.967 392.619 846.906 395.058C843.845 397.498 839.134 398.717 832.773 398.717ZM896.798 398V359.258H882.593V351.797H920.617V359.258H906.484V398H896.798ZM1000.55 398V351.797H1010.31L1023.87 379.562L1037.43 351.797H1047.12V398H1037.43V367.939L1026.67 390.036H1021.07L1010.24 367.939V398H1000.55ZM1105.71 398.717C1090.74 398.717 1083.25 390.849 1083.25 375.114C1083.25 366.648 1085.14 360.526 1088.92 356.747C1092.7 352.968 1098.3 351.079 1105.71 351.079C1113.12 351.079 1118.72 352.968 1122.5 356.747C1126.28 360.526 1128.16 366.648 1128.16 375.114C1128.16 390.849 1120.68 398.717 1105.71 398.717ZM1105.71 390.467C1110.06 390.467 1113.24 389.223 1115.25 386.736C1117.31 384.201 1118.34 380.327 1118.34 375.114C1118.34 369.326 1117.31 365.261 1115.25 362.917C1113.24 360.526 1110.06 359.33 1105.71 359.33C1101.36 359.33 1098.15 360.526 1096.1 362.917C1094.09 365.261 1093.08 369.326 1093.08 375.114C1093.08 380.327 1094.09 384.201 1096.1 386.736C1098.15 389.223 1101.36 390.467 1105.71 390.467ZM1164.34 398V351.797H1174.1L1187.65 379.562L1201.21 351.797H1210.9V398H1201.21V367.939L1190.45 390.036H1184.86L1174.02 367.939V398H1164.34ZM1248.47 398V351.797H1281.62V359.33H1258.16V371.168H1278.96V378.629H1258.16V390.539H1281.62V398H1248.47ZM1317.75 398V351.797H1326.15L1348.03 382.575V351.797H1357.71V398H1349.32L1327.44 367.222V398H1317.75ZM1406.64 398V359.258H1392.43V351.797H1430.46V359.258H1416.32V398H1406.64ZM1485.52 398.717C1479.16 398.717 1474.11 397.187 1470.38 394.126C1466.7 391.017 1464.85 386.521 1464.85 380.638V351.797H1474.54V379.92C1474.54 383.46 1475.5 386.114 1477.41 387.884C1479.32 389.606 1482.03 390.467 1485.52 390.467C1489.01 390.467 1491.69 389.606 1493.55 387.884C1495.47 386.114 1496.42 383.46 1496.42 379.92V351.797H1506.11V380.638C1506.11 386.521 1504.27 391.017 1500.58 394.126C1496.9 397.187 1491.88 398.717 1485.52 398.717ZM1543.32 398V351.797H1553.08L1566.64 379.562L1580.2 351.797H1589.88V398H1580.2V367.939L1569.44 390.036H1563.84L1553.01 367.939V398H1543.32Z" fill="black"/>
<path d="M584.097 398H583.097V399H584.097V398ZM584.097 351.797V350.797H583.097V351.797H584.097ZM617.817 355.097L617.118 355.812L617.125 355.819L617.133 355.826L617.817 355.097ZM619.826 370.522L620.688 371.029L620.694 371.018L619.826 370.522ZM615.952 374.324L615.464 373.451L613.431 374.587L615.655 375.279L615.952 374.324ZM621.046 377.696L620.26 378.315L620.27 378.328L620.281 378.341L621.046 377.696ZM619.18 394.628L619.851 395.37L619.852 395.369L619.18 394.628ZM593.783 370.952H592.783V371.952H593.783V370.952ZM610.714 369.446L611.422 370.153L611.43 370.145L611.438 370.136L610.714 369.446ZM610.643 360.478L609.936 361.185L609.944 361.193L609.952 361.201L610.643 360.478ZM593.783 358.971V357.971H592.783V358.971H593.783ZM593.783 390.897H592.783V391.897H593.783V390.897ZM611.432 379.49L610.758 380.228L610.765 380.236L610.773 380.243L611.432 379.49ZM593.783 377.983V376.983H592.783V377.983H593.783ZM585.097 398V351.797H583.097V398H585.097ZM584.097 352.797H607.486V350.797H584.097V352.797ZM607.486 352.797C611.987 352.797 615.129 353.865 617.118 355.812L618.517 354.382C616.009 351.928 612.264 350.797 607.486 350.797V352.797ZM617.133 355.826C619.177 357.743 620.261 360.51 620.261 364.28H622.261C622.261 360.111 621.048 356.756 618.501 354.367L617.133 355.826ZM620.261 364.28C620.261 366.643 619.806 368.541 618.958 370.026L620.694 371.018C621.759 369.155 622.261 366.892 622.261 364.28H620.261ZM618.964 370.015C618.096 371.49 616.933 372.63 615.464 373.451L616.44 375.197C618.223 374.201 619.642 372.806 620.688 371.029L618.964 370.015ZM615.655 375.279C617.638 375.896 619.157 376.915 620.26 378.315L621.831 377.077C620.447 375.321 618.57 374.092 616.249 373.37L615.655 375.279ZM620.281 378.341C621.36 379.62 621.983 381.62 621.983 384.512H623.983C623.983 381.378 623.314 378.834 621.81 377.051L620.281 378.341ZM621.983 384.512C621.983 388.768 620.776 391.834 618.509 393.887L619.852 395.369C622.654 392.831 623.983 389.153 623.983 384.512H621.983ZM618.51 393.886C616.27 395.91 612.936 397 608.347 397V399C613.228 399 617.116 397.842 619.851 395.37L618.51 393.886ZM608.347 397H584.097V399H608.347V397ZM593.783 371.952H605.692V369.952H593.783V371.952ZM605.692 371.952C608.137 371.952 610.139 371.435 611.422 370.153L610.007 368.739C609.281 369.465 607.934 369.952 605.692 369.952V371.952ZM611.438 370.136C612.666 368.85 613.221 367.116 613.221 365.069H611.221C611.221 366.753 610.772 367.937 609.991 368.755L611.438 370.136ZM613.221 365.069C613.221 362.855 612.653 361.014 611.333 359.754L609.952 361.201C610.737 361.95 611.221 363.171 611.221 365.069H613.221ZM611.35 359.771C610.044 358.465 607.792 357.971 604.975 357.971V359.971C607.706 359.971 609.232 360.481 609.936 361.185L611.35 359.771ZM604.975 357.971H593.783V359.971H604.975V357.971ZM592.783 358.971V370.952H594.783V358.971H592.783ZM593.783 391.897H606.051V389.897H593.783V391.897ZM606.051 391.897C608.595 391.897 610.678 391.379 612.09 390.143L610.773 388.638C609.89 389.411 608.385 389.897 606.051 389.897V391.897ZM612.09 390.143C613.564 388.854 614.154 386.72 614.154 384.082H612.154C612.154 386.513 611.596 387.918 610.773 388.638L612.09 390.143ZM614.154 384.082C614.154 381.842 613.524 379.992 612.09 378.737L610.773 380.243C611.636 380.997 612.154 382.208 612.154 384.082H614.154ZM612.106 378.751C610.711 377.478 608.365 376.983 605.405 376.983V378.983C608.28 378.983 609.952 379.493 610.758 380.228L612.106 378.751ZM605.405 376.983H593.783V378.983H605.405V376.983ZM592.783 377.983V390.897H594.783V377.983H592.783ZM663.356 356.747L662.649 356.04L663.356 356.747ZM696.933 356.747L697.64 356.04L696.933 356.747ZM689.686 386.736L688.91 386.106L688.908 386.108L689.686 386.736ZM689.686 362.917L688.921 363.56L688.928 363.568L688.935 363.577L689.686 362.917ZM670.531 362.917L669.772 362.265L669.771 362.266L670.531 362.917ZM670.531 386.736L669.747 387.357L669.753 387.365L669.76 387.373L670.531 386.736ZM680.144 397.717C672.826 397.717 667.518 395.797 664.027 392.127C660.527 388.448 658.688 382.839 658.688 375.114H656.688C656.688 383.124 658.593 389.317 662.578 393.506C666.572 397.704 672.492 399.717 680.144 399.717V397.717ZM658.688 375.114C658.688 366.763 660.557 360.961 664.063 357.454L662.649 356.04C658.599 360.09 656.688 366.532 656.688 375.114H658.688ZM664.063 357.454C667.591 353.926 672.891 352.079 680.144 352.079V350.079C672.57 350.079 666.678 352.011 662.649 356.04L664.063 357.454ZM680.144 352.079C687.397 352.079 692.697 353.926 696.226 357.454L697.64 356.04C693.611 352.011 687.719 350.079 680.144 350.079V352.079ZM696.226 357.454C699.732 360.961 701.6 366.763 701.6 375.114H703.6C703.6 366.532 701.69 360.09 697.64 356.04L696.226 357.454ZM701.6 375.114C701.6 382.839 699.762 388.448 696.262 392.127C692.771 395.797 687.463 397.717 680.144 397.717V399.717C687.797 399.717 693.717 397.704 697.711 393.506C701.696 389.317 703.6 383.124 703.6 375.114H701.6ZM680.144 391.467C684.683 391.467 688.203 390.164 690.464 387.364L688.908 386.108C687.152 388.282 684.311 389.467 680.144 389.467V391.467ZM690.463 387.366C692.728 384.574 693.771 380.428 693.771 375.114H691.771C691.771 380.226 690.758 383.828 688.91 386.106L690.463 387.366ZM693.771 375.114C693.771 369.267 692.744 364.886 690.438 362.257L688.935 363.577C690.742 365.636 691.771 369.385 691.771 375.114H693.771ZM690.452 362.274C688.187 359.577 684.671 358.33 680.144 358.33V360.33C684.323 360.33 687.168 361.474 688.921 363.56L690.452 362.274ZM680.144 358.33C675.616 358.33 672.083 359.578 669.772 362.265L671.289 363.569C673.091 361.473 675.968 360.33 680.144 360.33V358.33ZM669.771 362.266C667.519 364.894 666.517 369.271 666.517 375.114H668.517C668.517 369.382 669.524 365.628 671.29 363.568L669.771 362.266ZM666.517 375.114C666.517 380.424 667.535 384.566 669.747 387.357L671.314 386.115C669.509 383.836 668.517 380.23 668.517 375.114H666.517ZM669.76 387.373C672.067 390.164 675.604 391.467 680.144 391.467V389.467C675.98 389.467 673.107 388.283 671.301 386.099L669.76 387.373ZM743.006 356.747L742.299 356.04L743.006 356.747ZM776.583 356.747L777.29 356.04L776.583 356.747ZM769.337 386.736L768.56 386.106L768.559 386.108L769.337 386.736ZM769.337 362.917L768.571 363.56L768.578 363.568L768.585 363.577L769.337 362.917ZM750.181 362.917L749.423 362.265L749.422 362.266L750.181 362.917ZM750.181 386.736L749.397 387.357L749.404 387.365L749.41 387.373L750.181 386.736ZM759.795 397.717C752.477 397.717 747.168 395.797 743.677 392.127C740.177 388.448 738.339 382.839 738.339 375.114H736.339C736.339 383.124 738.243 389.317 742.228 393.506C746.222 397.704 752.142 399.717 759.795 399.717V397.717ZM738.339 375.114C738.339 366.763 740.207 360.961 743.714 357.454L742.299 356.04C738.249 360.09 736.339 366.532 736.339 375.114H738.339ZM743.714 357.454C747.242 353.926 752.542 352.079 759.795 352.079V350.079C752.22 350.079 746.328 352.011 742.299 356.04L743.714 357.454ZM759.795 352.079C767.048 352.079 772.348 353.926 775.876 357.454L777.29 356.04C773.261 352.011 767.369 350.079 759.795 350.079V352.079ZM775.876 357.454C779.382 360.961 781.251 366.763 781.251 375.114H783.251C783.251 366.532 781.34 360.09 777.29 356.04L775.876 357.454ZM781.251 375.114C781.251 382.839 779.412 388.448 775.912 392.127C772.421 395.797 767.113 397.717 759.795 397.717V399.717C767.447 399.717 773.367 397.704 777.361 393.506C781.346 389.317 783.251 383.124 783.251 375.114H781.251ZM759.795 391.467C764.333 391.467 767.853 390.164 770.115 387.364L768.559 386.108C766.802 388.282 763.961 389.467 759.795 389.467V391.467ZM770.113 387.366C772.379 384.574 773.422 380.428 773.422 375.114H771.422C771.422 380.226 770.408 383.828 768.56 386.106L770.113 387.366ZM773.422 375.114C773.422 369.267 772.395 364.886 770.088 362.257L768.585 363.577C770.392 365.636 771.422 369.385 771.422 375.114H773.422ZM770.102 362.274C767.837 359.577 764.321 358.33 759.795 358.33V360.33C763.973 360.33 766.818 361.474 768.571 363.56L770.102 362.274ZM759.795 358.33C755.267 358.33 751.734 359.578 749.423 362.265L750.939 363.569C752.741 361.473 755.618 360.33 759.795 360.33V358.33ZM749.422 362.266C747.17 364.894 746.168 369.271 746.168 375.114H748.168C748.168 369.382 749.174 365.628 750.94 363.568L749.422 362.266ZM746.168 375.114C746.168 380.424 747.185 384.566 749.397 387.357L750.965 386.115C749.159 383.836 748.168 380.23 748.168 375.114H746.168ZM749.41 387.373C751.718 390.164 755.254 391.467 759.795 391.467V389.467C755.63 389.467 752.758 388.283 750.952 386.099L749.41 387.373ZM824.45 398.072L824.283 399.058L824.286 399.058L824.45 398.072ZM817.85 396.206H816.85V396.861L817.45 397.123L817.85 396.206ZM817.85 387.669L818.228 386.743L816.85 386.179V387.669H817.85ZM824.666 389.749L824.876 388.772L824.666 389.749ZM839.23 389.606L838.863 388.675L839.23 389.606ZM840.593 382.073L841.365 381.437L840.593 382.073ZM837.077 379.92L836.697 380.845L836.713 380.852L836.729 380.858L837.077 379.92ZM830.118 377.696L829.851 378.66L829.858 378.662L830.118 377.696ZM821.652 354.523L822.246 355.327L821.652 354.523ZM848.772 353.016H849.772V352.31L849.106 352.074L848.772 353.016ZM848.772 361.554L848.418 362.489L849.772 363.001V361.554H848.772ZM829.401 360.334L829.74 361.275L829.752 361.271L829.763 361.266L829.401 360.334ZM827.751 367.222L826.995 367.877V367.877L827.751 367.222ZM830.907 369.159L830.546 370.091L830.556 370.095L830.907 369.159ZM837.293 371.096L837.549 370.129L837.547 370.129L837.293 371.096ZM846.045 374.683L846.605 373.854L846.045 374.683ZM850.278 379.418L849.36 379.815L849.365 379.825L849.37 379.836L850.278 379.418ZM846.906 395.058L847.53 395.841L846.906 395.058ZM832.773 397.717C829.855 397.717 827.137 397.506 824.615 397.085L824.286 399.058C826.93 399.499 829.759 399.717 832.773 399.717V397.717ZM824.618 397.086C822.143 396.666 820.024 396.063 818.249 395.29L817.45 397.123C819.406 397.976 821.688 398.617 824.283 399.058L824.618 397.086ZM818.85 396.206V387.669H816.85V396.206H818.85ZM817.471 388.594C819.635 389.48 821.964 390.19 824.455 390.727L824.876 388.772C822.489 388.257 820.274 387.58 818.228 386.743L817.471 388.594ZM824.455 390.727C826.959 391.267 829.421 391.539 831.84 391.539V389.539C829.572 389.539 827.251 389.284 824.876 388.772L824.455 390.727ZM831.84 391.539C835.216 391.539 837.836 391.23 839.596 390.536L838.863 388.675C837.467 389.225 835.161 389.539 831.84 389.539V391.539ZM839.596 390.536C840.589 390.145 841.365 389.487 841.878 388.569C842.381 387.671 842.597 386.585 842.597 385.373H840.597C840.597 386.361 840.419 387.081 840.133 387.593C839.857 388.087 839.449 388.445 838.863 388.675L839.596 390.536ZM842.597 385.373C842.597 383.828 842.223 382.479 841.365 381.437L839.821 382.708C840.302 383.293 840.597 384.144 840.597 385.373H842.597ZM841.365 381.437C840.53 380.423 839.164 379.629 837.426 378.983L836.729 380.858C838.339 381.456 839.316 382.096 839.821 382.708L841.365 381.437ZM837.458 378.996C835.774 378.302 833.407 377.548 830.379 376.731L829.858 378.662C832.856 379.471 835.128 380.199 836.697 380.845L837.458 378.996ZM830.385 376.733C825.61 375.409 822.421 373.794 820.646 371.976L819.215 373.373C821.362 375.572 824.965 377.306 829.851 378.66L830.385 376.733ZM820.646 371.976C818.912 370.199 817.989 367.702 817.989 364.352H815.989C815.989 368.081 817.027 371.132 819.215 373.373L820.646 371.976ZM817.989 364.352C817.989 360.375 819.421 357.414 822.246 355.327L821.058 353.718C817.665 356.224 815.989 359.815 815.989 364.352H817.989ZM822.246 355.327C825.113 353.21 829.387 352.079 835.212 352.079V350.079C829.175 350.079 824.409 351.244 821.058 353.718L822.246 355.327ZM835.212 352.079C837.941 352.079 840.47 352.267 842.802 352.641L843.118 350.666C840.668 350.274 838.032 350.079 835.212 350.079V352.079ZM842.802 352.641C845.162 353.018 847.034 353.461 848.437 353.959L849.106 352.074C847.544 351.52 845.542 351.053 843.118 350.666L842.802 352.641ZM847.772 353.016V361.554H849.772V353.016H847.772ZM849.125 360.618C845.089 359.092 840.879 358.33 836.503 358.33V360.33C840.641 360.33 844.611 361.05 848.418 362.489L849.125 360.618ZM836.503 358.33C833.434 358.33 830.926 358.668 829.038 359.402L829.763 361.266C831.319 360.661 833.546 360.33 836.503 360.33V358.33ZM829.061 359.394C828.026 359.767 827.189 360.383 826.622 361.264C826.062 362.136 825.818 363.187 825.818 364.352H827.818C827.818 363.46 828.004 362.813 828.305 362.346C828.599 361.888 829.054 361.523 829.74 361.275L829.061 359.394ZM825.818 364.352C825.818 365.724 826.178 366.934 826.995 367.877L828.506 366.567C828.08 366.074 827.818 365.371 827.818 364.352H825.818ZM826.995 367.877C827.773 368.774 829.002 369.493 830.546 370.091L831.268 368.226C829.848 367.676 828.972 367.104 828.506 366.567L826.995 367.877ZM830.556 370.095C832.133 370.686 834.299 371.342 837.038 372.063L837.547 370.129C834.834 369.415 832.743 368.779 831.258 368.222L830.556 370.095ZM837.036 372.062C840.761 373.053 843.559 374.213 845.486 375.512L846.605 373.854C844.418 372.379 841.381 371.148 837.549 370.129L837.036 372.062ZM845.486 375.512C847.429 376.823 848.69 378.265 849.36 379.815L851.196 379.021C850.336 377.032 848.775 375.318 846.605 373.854L845.486 375.512ZM849.37 379.836C850.115 381.458 850.498 383.298 850.498 385.373H852.498C852.498 383.047 852.068 380.917 851.187 379.001L849.37 379.836ZM850.498 385.373C850.498 389.096 849.099 392.033 846.283 394.276L847.53 395.841C850.836 393.206 852.498 389.686 852.498 385.373H850.498ZM846.283 394.276C843.48 396.51 839.039 397.717 832.773 397.717V399.717C839.229 399.717 844.211 398.485 847.53 395.841L846.283 394.276ZM896.798 398H895.798V399H896.798V398ZM896.798 359.258H897.798V358.258H896.798V359.258ZM882.593 359.258H881.593V360.258H882.593V359.258ZM882.593 351.797V350.797H881.593V351.797H882.593ZM920.617 351.797H921.617V350.797H920.617V351.797ZM920.617 359.258V360.258H921.617V359.258H920.617ZM906.484 359.258V358.258H905.484V359.258H906.484ZM906.484 398V399H907.484V398H906.484ZM897.798 398V359.258H895.798V398H897.798ZM896.798 358.258H882.593V360.258H896.798V358.258ZM883.593 359.258V351.797H881.593V359.258H883.593ZM882.593 352.797H920.617V350.797H882.593V352.797ZM919.617 351.797V359.258H921.617V351.797H919.617ZM920.617 358.258H906.484V360.258H920.617V358.258ZM905.484 359.258V398H907.484V359.258H905.484ZM906.484 397H896.798V399H906.484V397ZM1000.55 398H999.554V399H1000.55V398ZM1000.55 351.797V350.797H999.554V351.797H1000.55ZM1010.31 351.797L1011.21 351.358L1010.94 350.797H1010.31V351.797ZM1023.87 379.562L1022.97 380.001L1023.87 381.84L1024.77 380.001L1023.87 379.562ZM1037.43 351.797V350.797H1036.81L1036.53 351.358L1037.43 351.797ZM1047.12 351.797H1048.12V350.797H1047.12V351.797ZM1047.12 398V399H1048.12V398H1047.12ZM1037.43 398H1036.43V399H1037.43V398ZM1037.43 367.939H1038.43L1036.53 367.501L1037.43 367.939ZM1026.67 390.036V391.036H1027.29L1027.57 390.474L1026.67 390.036ZM1021.07 390.036L1020.17 390.477L1020.45 391.036H1021.07V390.036ZM1010.24 367.939L1011.14 367.499L1009.24 367.939H1010.24ZM1010.24 398V399H1011.24V398H1010.24ZM1001.55 398V351.797H999.554V398H1001.55ZM1000.55 352.797H1010.31V350.797H1000.55V352.797ZM1009.41 352.235L1022.97 380.001L1024.77 379.123L1011.21 351.358L1009.41 352.235ZM1024.77 380.001L1038.33 352.235L1036.53 351.358L1022.97 379.123L1024.77 380.001ZM1037.43 352.797H1047.12V350.797H1037.43V352.797ZM1046.12 351.797V398H1048.12V351.797H1046.12ZM1047.12 397H1037.43V399H1047.12V397ZM1038.43 398V367.939H1036.43V398H1038.43ZM1036.53 367.501L1025.77 389.599L1027.57 390.474L1038.33 368.377L1036.53 367.501ZM1026.67 389.036H1021.07V391.036H1026.67V389.036ZM1021.97 389.596L1011.14 367.499L1009.34 368.379L1020.17 390.477L1021.97 389.596ZM1009.24 367.939V398H1011.24V367.939H1009.24ZM1010.24 397H1000.55V399H1010.24V397ZM1088.92 356.747L1088.21 356.04L1088.92 356.747ZM1122.5 356.747L1123.2 356.04L1122.5 356.747ZM1115.25 386.736L1114.47 386.106L1114.47 386.108L1115.25 386.736ZM1115.25 362.917L1114.49 363.56L1114.49 363.568L1114.5 363.577L1115.25 362.917ZM1096.1 362.917L1095.34 362.265L1095.34 362.266L1096.1 362.917ZM1096.1 386.736L1095.31 387.357L1095.32 387.365L1095.32 387.373L1096.1 386.736ZM1105.71 397.717C1098.39 397.717 1093.08 395.797 1089.59 392.127C1086.09 388.448 1084.25 382.839 1084.25 375.114H1082.25C1082.25 383.124 1084.16 389.317 1088.14 393.506C1092.14 397.704 1098.06 399.717 1105.71 399.717V397.717ZM1084.25 375.114C1084.25 366.763 1086.12 360.961 1089.63 357.454L1088.21 356.04C1084.16 360.09 1082.25 366.532 1082.25 375.114H1084.25ZM1089.63 357.454C1093.16 353.926 1098.46 352.079 1105.71 352.079V350.079C1098.13 350.079 1092.24 352.011 1088.21 356.04L1089.63 357.454ZM1105.71 352.079C1112.96 352.079 1118.26 353.926 1121.79 357.454L1123.2 356.04C1119.18 352.011 1113.28 350.079 1105.71 350.079V352.079ZM1121.79 357.454C1125.3 360.961 1127.16 366.763 1127.16 375.114H1129.16C1129.16 366.532 1127.25 360.09 1123.2 356.04L1121.79 357.454ZM1127.16 375.114C1127.16 382.839 1125.33 388.448 1121.83 392.127C1118.34 395.797 1113.03 397.717 1105.71 397.717V399.717C1113.36 399.717 1119.28 397.704 1123.28 393.506C1127.26 389.317 1129.16 383.124 1129.16 375.114H1127.16ZM1105.71 391.467C1110.25 391.467 1113.77 390.164 1116.03 387.364L1114.47 386.108C1112.72 388.282 1109.88 389.467 1105.71 389.467V391.467ZM1116.03 387.366C1118.29 384.574 1119.34 380.428 1119.34 375.114H1117.34C1117.34 380.226 1116.32 383.828 1114.47 386.106L1116.03 387.366ZM1119.34 375.114C1119.34 369.267 1118.31 364.886 1116 362.257L1114.5 363.577C1116.31 365.636 1117.34 369.385 1117.34 375.114H1119.34ZM1116.02 362.274C1113.75 359.577 1110.24 358.33 1105.71 358.33V360.33C1109.89 360.33 1112.73 361.474 1114.49 363.56L1116.02 362.274ZM1105.71 358.33C1101.18 358.33 1097.65 359.578 1095.34 362.265L1096.85 363.569C1098.66 361.473 1101.53 360.33 1105.71 360.33V358.33ZM1095.34 362.266C1093.08 364.894 1092.08 369.271 1092.08 375.114H1094.08C1094.08 369.382 1095.09 365.628 1096.85 363.568L1095.34 362.266ZM1092.08 375.114C1092.08 380.424 1093.1 384.566 1095.31 387.357L1096.88 386.115C1095.07 383.836 1094.08 380.23 1094.08 375.114H1092.08ZM1095.32 387.373C1097.63 390.164 1101.17 391.467 1105.71 391.467V389.467C1101.54 389.467 1098.67 388.283 1096.87 386.099L1095.32 387.373ZM1164.34 398H1163.34V399H1164.34V398ZM1164.34 351.797V350.797H1163.34V351.797H1164.34ZM1174.1 351.797L1174.99 351.358L1174.72 350.797H1174.1V351.797ZM1187.65 379.562L1186.76 380.001L1187.65 381.84L1188.55 380.001L1187.65 379.562ZM1201.21 351.797V350.797H1200.59L1200.32 351.358L1201.21 351.797ZM1210.9 351.797H1211.9V350.797H1210.9V351.797ZM1210.9 398V399H1211.9V398H1210.9ZM1201.21 398H1200.21V399H1201.21V398ZM1201.21 367.939H1202.21L1200.32 367.501L1201.21 367.939ZM1190.45 390.036V391.036H1191.08L1191.35 390.474L1190.45 390.036ZM1184.86 390.036L1183.96 390.477L1184.23 391.036H1184.86V390.036ZM1174.02 367.939L1174.92 367.499L1173.02 367.939H1174.02ZM1174.02 398V399H1175.02V398H1174.02ZM1165.34 398V351.797H1163.34V398H1165.34ZM1164.34 352.797H1174.1V350.797H1164.34V352.797ZM1173.2 352.235L1186.76 380.001L1188.55 379.123L1174.99 351.358L1173.2 352.235ZM1188.55 380.001L1202.11 352.235L1200.32 351.358L1186.76 379.123L1188.55 380.001ZM1201.21 352.797H1210.9V350.797H1201.21V352.797ZM1209.9 351.797V398H1211.9V351.797H1209.9ZM1210.9 397H1201.21V399H1210.9V397ZM1202.21 398V367.939H1200.21V398H1202.21ZM1200.32 367.501L1189.55 389.599L1191.35 390.474L1202.11 368.377L1200.32 367.501ZM1190.45 389.036H1184.86V391.036H1190.45V389.036ZM1185.75 389.596L1174.92 367.499L1173.13 368.379L1183.96 390.477L1185.75 389.596ZM1173.02 367.939V398H1175.02V367.939H1173.02ZM1174.02 397H1164.34V399H1174.02V397ZM1248.47 398H1247.47V399H1248.47V398ZM1248.47 351.797V350.797H1247.47V351.797H1248.47ZM1281.62 351.797H1282.62V350.797H1281.62V351.797ZM1281.62 359.33V360.33H1282.62V359.33H1281.62ZM1258.16 359.33V358.33H1257.16V359.33H1258.16ZM1258.16 371.168H1257.16V372.168H1258.16V371.168ZM1278.96 371.168H1279.96V370.168H1278.96V371.168ZM1278.96 378.629V379.629H1279.96V378.629H1278.96ZM1258.16 378.629V377.629H1257.16V378.629H1258.16ZM1258.16 390.539H1257.16V391.539H1258.16V390.539ZM1281.62 390.539H1282.62V389.539H1281.62V390.539ZM1281.62 398V399H1282.62V398H1281.62ZM1249.47 398V351.797H1247.47V398H1249.47ZM1248.47 352.797H1281.62V350.797H1248.47V352.797ZM1280.62 351.797V359.33H1282.62V351.797H1280.62ZM1281.62 358.33H1258.16V360.33H1281.62V358.33ZM1257.16 359.33V371.168H1259.16V359.33H1257.16ZM1258.16 372.168H1278.96V370.168H1258.16V372.168ZM1277.96 371.168V378.629H1279.96V371.168H1277.96ZM1278.96 377.629H1258.16V379.629H1278.96V377.629ZM1257.16 378.629V390.539H1259.16V378.629H1257.16ZM1258.16 391.539H1281.62V389.539H1258.16V391.539ZM1280.62 390.539V398H1282.62V390.539H1280.62ZM1281.62 397H1248.47V399H1281.62V397ZM1317.75 398H1316.75V399H1317.75V398ZM1317.75 351.797V350.797H1316.75V351.797H1317.75ZM1326.15 351.797L1326.96 351.217L1326.66 350.797H1326.15V351.797ZM1348.03 382.575L1347.21 383.154L1349.03 385.707V382.575H1348.03ZM1348.03 351.797V350.797H1347.03V351.797H1348.03ZM1357.71 351.797H1358.71V350.797H1357.71V351.797ZM1357.71 398V399H1358.71V398H1357.71ZM1349.32 398L1348.51 398.579L1348.8 399H1349.32V398ZM1327.44 367.222L1328.25 366.642L1326.44 364.089V367.222H1327.44ZM1327.44 398V399H1328.44V398H1327.44ZM1318.75 398V351.797H1316.75V398H1318.75ZM1317.75 352.797H1326.15V350.797H1317.75V352.797ZM1325.33 352.376L1347.21 383.154L1348.84 381.996L1326.96 351.217L1325.33 352.376ZM1349.03 382.575V351.797H1347.03V382.575H1349.03ZM1348.03 352.797H1357.71V350.797H1348.03V352.797ZM1356.71 351.797V398H1358.71V351.797H1356.71ZM1357.71 397H1349.32V399H1357.71V397ZM1350.14 397.421L1328.25 366.642L1326.62 367.801L1348.51 398.579L1350.14 397.421ZM1326.44 367.222V398H1328.44V367.222H1326.44ZM1327.44 397H1317.75V399H1327.44V397ZM1406.64 398H1405.64V399H1406.64V398ZM1406.64 359.258H1407.64V358.258H1406.64V359.258ZM1392.43 359.258H1391.43V360.258H1392.43V359.258ZM1392.43 351.797V350.797H1391.43V351.797H1392.43ZM1430.46 351.797H1431.46V350.797H1430.46V351.797ZM1430.46 359.258V360.258H1431.46V359.258H1430.46ZM1416.32 359.258V358.258H1415.32V359.258H1416.32ZM1416.32 398V399H1417.32V398H1416.32ZM1407.64 398V359.258H1405.64V398H1407.64ZM1406.64 358.258H1392.43V360.258H1406.64V358.258ZM1393.43 359.258V351.797H1391.43V359.258H1393.43ZM1392.43 352.797H1430.46V350.797H1392.43V352.797ZM1429.46 351.797V359.258H1431.46V351.797H1429.46ZM1430.46 358.258H1416.32V360.258H1430.46V358.258ZM1415.32 359.258V398H1417.32V359.258H1415.32ZM1416.32 397H1406.64V399H1416.32V397ZM1470.38 394.126L1469.73 394.89L1469.74 394.899L1470.38 394.126ZM1464.85 351.797V350.797H1463.85V351.797H1464.85ZM1474.54 351.797H1475.54V350.797H1474.54V351.797ZM1477.41 387.884L1476.73 388.618L1476.74 388.627L1477.41 387.884ZM1493.55 387.884L1494.23 388.619L1494.23 388.618L1493.55 387.884ZM1496.42 351.797V350.797H1495.42V351.797H1496.42ZM1506.11 351.797H1507.11V350.797H1506.11V351.797ZM1500.58 394.126L1501.22 394.895L1501.23 394.89L1500.58 394.126ZM1485.52 397.717C1479.31 397.717 1474.51 396.226 1471.01 393.353L1469.74 394.899C1473.7 398.148 1479 399.717 1485.52 399.717V397.717ZM1471.02 393.362C1467.62 390.484 1465.85 386.297 1465.85 380.638H1463.85C1463.85 386.744 1465.78 391.549 1469.73 394.89L1471.02 393.362ZM1465.85 380.638V351.797H1463.85V380.638H1465.85ZM1464.85 352.797H1474.54V350.797H1464.85V352.797ZM1473.54 351.797V379.92H1475.54V351.797H1473.54ZM1473.54 379.92C1473.54 383.635 1474.55 386.599 1476.73 388.618L1478.09 387.15C1476.45 385.63 1475.54 383.285 1475.54 379.92H1473.54ZM1476.74 388.627C1478.89 390.566 1481.87 391.467 1485.52 391.467V389.467C1482.18 389.467 1479.75 388.646 1478.08 387.141L1476.74 388.627ZM1485.52 391.467C1489.16 391.467 1492.12 390.566 1494.23 388.619L1492.87 387.149C1491.25 388.645 1488.85 389.467 1485.52 389.467V391.467ZM1494.23 388.618C1496.41 386.599 1497.42 383.635 1497.42 379.92H1495.42C1495.42 383.285 1494.52 385.63 1492.87 387.15L1494.23 388.618ZM1497.42 379.92V351.797H1495.42V379.92H1497.42ZM1496.42 352.797H1506.11V350.797H1496.42V352.797ZM1505.11 351.797V380.638H1507.11V351.797H1505.11ZM1505.11 380.638C1505.11 386.297 1503.35 390.484 1499.94 393.362L1501.23 394.89C1505.19 391.549 1507.11 386.744 1507.11 380.638H1505.11ZM1499.94 393.357C1496.49 396.226 1491.72 397.717 1485.52 397.717V399.717C1492.03 399.717 1497.31 398.148 1501.22 394.895L1499.94 393.357ZM1543.32 398H1542.32V399H1543.32V398ZM1543.32 351.797V350.797H1542.32V351.797H1543.32ZM1553.08 351.797L1553.98 351.358L1553.7 350.797H1553.08V351.797ZM1566.64 379.562L1565.74 380.001L1566.64 381.84L1567.54 380.001L1566.64 379.562ZM1580.2 351.797V350.797H1579.57L1579.3 351.358L1580.2 351.797ZM1589.88 351.797H1590.88V350.797H1589.88V351.797ZM1589.88 398V399H1590.88V398H1589.88ZM1580.2 398H1579.2V399H1580.2V398ZM1580.2 367.939H1581.2L1579.3 367.501L1580.2 367.939ZM1569.44 390.036V391.036H1570.06L1570.34 390.474L1569.44 390.036ZM1563.84 390.036L1562.94 390.477L1563.22 391.036H1563.84V390.036ZM1553.01 367.939L1553.91 367.499L1552.01 367.939H1553.01ZM1553.01 398V399H1554.01V398H1553.01ZM1544.32 398V351.797H1542.32V398H1544.32ZM1543.32 352.797H1553.08V350.797H1543.32V352.797ZM1552.18 352.235L1565.74 380.001L1567.54 379.123L1553.98 351.358L1552.18 352.235ZM1567.54 380.001L1581.1 352.235L1579.3 351.358L1565.74 379.123L1567.54 380.001ZM1580.2 352.797H1589.88V350.797H1580.2V352.797ZM1588.88 351.797V398H1590.88V351.797H1588.88ZM1589.88 397H1580.2V399H1589.88V397ZM1581.2 398V367.939H1579.2V398H1581.2ZM1579.3 367.501L1568.54 389.599L1570.34 390.474L1581.1 368.377L1579.3 367.501ZM1569.44 389.036H1563.84V391.036H1569.44V389.036ZM1564.74 389.596L1553.91 367.499L1552.11 368.379L1562.94 390.477L1564.74 389.596ZM1552.01 367.939V398H1554.01V367.939H1552.01ZM1553.01 397H1543.32V399H1553.01V397Z" fill="black" mask="url(#path-8-outside-2_1391_57)"/>
</svg>
