<svg width="1638" height="426" viewBox="0 0 1638 426" fill="none" xmlns="http://www.w3.org/2000/svg">
<path d="M235.559 281L-0.000534058 417V145L235.559 281Z" fill="#D9D9D9"/>
<path d="M235.734 280.992L471.467 144.999V416.998L235.734 280.992Z" fill="#49416D"/>
<path d="M471.465 145.001L235.732 281.002V9.00195L471.465 145.001Z" fill="#8C92AC"/>
<path d="M0 145.001L235.733 8.99976L235.733 281L0 145.001Z" fill="#A1CCA5"/>
<path d="M235.734 280.995L0.00209045 416.988L0.00209045 144.989L235.734 280.995Z" fill="#8C92AC"/>
<path d="M572.52 289V152.468H522.896V119.91H664.417V152.468H614.793V289H572.52ZM705.077 291.626C697.2 291.626 689.848 290.225 683.022 287.425C676.37 284.624 671.031 280.335 667.005 274.559C662.979 268.608 660.966 261.256 660.966 252.504C660.966 239.726 665.255 229.749 673.832 222.572C682.584 215.22 695.625 211.544 712.954 211.544H747.612V208.656C747.612 202.355 745.511 197.891 741.31 195.266C737.109 192.465 729.232 191.065 717.68 191.065C703.501 191.065 689.586 193.253 675.932 197.629V170.322C682.059 167.872 689.498 165.859 698.25 164.283C707.177 162.708 716.542 161.92 726.344 161.92C745.599 161.92 760.652 165.859 771.505 173.735C782.532 181.612 788.046 194.128 788.046 211.282V289H751.025L748.925 278.498C744.373 282.699 738.51 285.937 731.333 288.212C724.331 290.488 715.579 291.626 705.077 291.626ZM718.467 265.632C725.119 265.632 730.895 264.494 735.796 262.219C740.698 259.943 744.636 257.055 747.612 253.554V235.963H717.68C705.252 235.963 699.038 240.951 699.038 250.929C699.038 255.48 700.613 259.068 703.764 261.694C706.915 264.319 711.816 265.632 718.467 265.632ZM859.607 291.626C849.629 291.626 840.177 290.925 831.25 289.525C822.323 288.125 815.234 286.374 809.982 284.274V251.979C816.109 254.604 823.198 256.617 831.25 258.018C839.302 259.418 846.478 260.118 852.78 260.118C860.307 260.118 865.733 259.768 869.059 259.068C872.56 258.368 874.31 256.442 874.31 253.292C874.31 249.791 871.509 247.165 865.908 245.415C860.307 243.664 852.605 241.126 842.803 237.801C831.425 233.775 822.76 229.136 816.809 223.885C811.033 218.458 808.144 210.494 808.144 199.992C808.144 187.739 812.696 178.374 821.798 171.898C831.075 165.246 845.778 161.92 865.908 161.92C873.785 161.92 881.574 162.533 889.276 163.758C896.978 164.983 903.279 166.384 908.18 167.959V199.729C903.279 197.454 897.678 195.791 891.376 194.74C885.075 193.69 879.386 193.165 874.31 193.165C867.833 193.165 862.32 193.603 857.769 194.478C853.393 195.178 851.205 197.016 851.205 199.992C851.205 203.317 853.655 205.68 858.556 207.081C863.457 208.306 870.547 210.407 879.824 213.382C889.626 216.358 897.24 219.596 902.667 223.097C908.093 226.423 911.944 230.449 914.219 235.175C916.495 239.901 917.633 245.852 917.633 253.029C917.633 265.457 912.731 274.997 902.929 281.648C893.127 288.3 878.686 291.626 859.607 291.626ZM939.036 289V112.034H981.308V204.455L1022 164.546H1070.05L1020.17 216.27L1072.94 289H1028.04L993.648 238.588L981.308 250.666V289H939.036ZM1083.65 289V119.91H1206.53V152.468H1125.92V187.914H1196.81V220.997H1125.92V289H1083.65ZM1261.21 291.626C1247.56 291.626 1237.76 288.65 1231.81 282.699C1225.85 276.747 1222.88 267.207 1222.88 254.079V112.034H1265.15V249.878C1265.15 253.904 1265.94 256.705 1267.51 258.28C1269.26 259.681 1271.8 260.381 1275.13 260.381C1279.85 260.381 1284.06 259.768 1287.73 258.543V287.162C1283.71 288.737 1279.68 289.875 1275.65 290.575C1271.8 291.276 1266.99 291.626 1261.21 291.626ZM1368.5 291.626C1344.52 291.626 1326.84 286.112 1315.46 275.084C1304.08 263.882 1298.4 247.778 1298.4 226.773C1298.4 205.943 1304.08 189.927 1315.46 178.724C1327.02 167.522 1344.69 161.92 1368.5 161.92C1392.48 161.92 1410.16 167.522 1421.54 178.724C1433.09 189.927 1438.87 205.943 1438.87 226.773C1438.87 247.778 1433.18 263.882 1421.8 275.084C1410.42 286.112 1392.66 291.626 1368.5 291.626ZM1368.5 258.543C1378.3 258.543 1385.3 256.092 1389.5 251.191C1393.71 246.29 1395.81 238.151 1395.81 226.773C1395.81 215.395 1393.71 207.256 1389.5 202.355C1385.3 197.454 1378.3 195.003 1368.5 195.003C1358.87 195.003 1351.96 197.454 1347.76 202.355C1343.56 207.256 1341.46 215.395 1341.46 226.773C1341.46 238.151 1343.56 246.29 1347.76 251.191C1351.96 256.092 1358.87 258.543 1368.5 258.543ZM1476.09 289L1443.27 164.546H1484.75L1501.56 235.963L1519.15 181.612V164.546H1550.92L1571.4 235.963L1587.68 164.546H1629.16L1596.34 289H1558.01L1536.74 224.41L1514.95 289H1476.09Z" fill="#8C92AC"/>
<path d="M584.097 398V351.797H607.486C612.125 351.797 615.569 352.897 617.817 355.097C620.113 357.249 621.261 360.31 621.261 364.28C621.261 366.767 620.783 368.848 619.826 370.522C618.869 372.148 617.578 373.416 615.952 374.324C618.104 374.994 619.802 376.118 621.046 377.696C622.337 379.227 622.983 381.499 622.983 384.512C622.983 388.96 621.715 392.332 619.18 394.628C616.693 396.876 613.082 398 608.347 398H584.097ZM593.783 370.952H605.692C608.036 370.952 609.71 370.45 610.714 369.446C611.719 368.393 612.221 366.935 612.221 365.069C612.221 363.013 611.695 361.482 610.643 360.478C609.638 359.473 607.749 358.971 604.975 358.971H593.783V370.952ZM593.783 390.897H606.051C608.49 390.897 610.284 390.395 611.432 389.391C612.58 388.386 613.154 386.617 613.154 384.082C613.154 382.025 612.58 380.494 611.432 379.49C610.332 378.486 608.323 377.983 605.405 377.983H593.783V390.897ZM680.144 398.717C665.174 398.717 657.688 390.849 657.688 375.114C657.688 366.648 659.578 360.526 663.356 356.747C667.135 352.968 672.731 351.079 680.144 351.079C687.558 351.079 693.154 352.968 696.933 356.747C700.711 360.526 702.6 366.648 702.6 375.114C702.6 390.849 695.115 398.717 680.144 398.717ZM680.144 390.467C684.497 390.467 687.678 389.223 689.686 386.736C691.743 384.201 692.771 380.327 692.771 375.114C692.771 369.326 691.743 365.261 689.686 362.917C687.678 360.526 684.497 359.33 680.144 359.33C675.792 359.33 672.587 360.526 670.531 362.917C668.522 365.261 667.517 369.326 667.517 375.114C667.517 380.327 668.522 384.201 670.531 386.736C672.587 389.223 675.792 390.467 680.144 390.467ZM759.795 398.717C744.824 398.717 737.339 390.849 737.339 375.114C737.339 366.648 739.228 360.526 743.006 356.747C746.785 352.968 752.381 351.079 759.795 351.079C767.208 351.079 772.804 352.968 776.583 356.747C780.361 360.526 782.251 366.648 782.251 375.114C782.251 390.849 774.765 398.717 759.795 398.717ZM759.795 390.467C764.147 390.467 767.328 389.223 769.337 386.736C771.393 384.201 772.422 380.327 772.422 375.114C772.422 369.326 771.393 365.261 769.337 362.917C767.328 360.526 764.147 359.33 759.795 359.33C755.442 359.33 752.238 360.526 750.181 362.917C748.172 365.261 747.168 369.326 747.168 375.114C747.168 380.327 748.172 384.201 750.181 386.736C752.238 389.223 755.442 390.467 759.795 390.467ZM832.773 398.717C829.807 398.717 827.033 398.502 824.45 398.072C821.915 397.641 819.715 397.019 817.85 396.206V387.669C819.954 388.53 822.226 389.223 824.666 389.749C827.105 390.276 829.496 390.539 831.84 390.539C835.188 390.539 837.651 390.228 839.23 389.606C840.808 388.984 841.597 387.573 841.597 385.373C841.597 383.986 841.262 382.886 840.593 382.073C839.923 381.26 838.751 380.542 837.077 379.92C835.451 379.251 833.131 378.509 830.118 377.696C825.287 376.357 821.891 374.683 819.93 372.674C817.969 370.665 816.989 367.891 816.989 364.352C816.989 360.095 818.543 356.819 821.652 354.523C824.761 352.227 829.281 351.079 835.212 351.079C837.986 351.079 840.569 351.271 842.96 351.653C845.352 352.036 847.289 352.49 848.772 353.016V361.554C844.85 360.071 840.76 359.33 836.503 359.33C833.49 359.33 831.123 359.665 829.401 360.334C827.679 360.956 826.818 362.295 826.818 364.352C826.818 365.548 827.129 366.504 827.751 367.222C828.372 367.939 829.425 368.585 830.907 369.159C832.438 369.733 834.566 370.378 837.293 371.096C841.071 372.1 843.989 373.296 846.045 374.683C848.102 376.07 849.513 377.649 850.278 379.418C851.091 381.188 851.498 383.173 851.498 385.373C851.498 389.391 849.967 392.619 846.906 395.058C843.845 397.498 839.134 398.717 832.773 398.717ZM896.798 398V359.258H882.593V351.797H920.617V359.258H906.484V398H896.798ZM1000.55 398V351.797H1010.31L1023.87 379.562L1037.43 351.797H1047.12V398H1037.43V367.939L1026.67 390.036H1021.07L1010.24 367.939V398H1000.55ZM1105.71 398.717C1090.74 398.717 1083.25 390.849 1083.25 375.114C1083.25 366.648 1085.14 360.526 1088.92 356.747C1092.7 352.968 1098.3 351.079 1105.71 351.079C1113.12 351.079 1118.72 352.968 1122.5 356.747C1126.28 360.526 1128.16 366.648 1128.16 375.114C1128.16 390.849 1120.68 398.717 1105.71 398.717ZM1105.71 390.467C1110.06 390.467 1113.24 389.223 1115.25 386.736C1117.31 384.201 1118.34 380.327 1118.34 375.114C1118.34 369.326 1117.31 365.261 1115.25 362.917C1113.24 360.526 1110.06 359.33 1105.71 359.33C1101.36 359.33 1098.15 360.526 1096.1 362.917C1094.09 365.261 1093.08 369.326 1093.08 375.114C1093.08 380.327 1094.09 384.201 1096.1 386.736C1098.15 389.223 1101.36 390.467 1105.71 390.467ZM1164.34 398V351.797H1174.1L1187.65 379.562L1201.21 351.797H1210.9V398H1201.21V367.939L1190.45 390.036H1184.86L1174.02 367.939V398H1164.34ZM1248.47 398V351.797H1281.62V359.33H1258.16V371.168H1278.96V378.629H1258.16V390.539H1281.62V398H1248.47ZM1317.75 398V351.797H1326.15L1348.03 382.575V351.797H1357.71V398H1349.32L1327.44 367.222V398H1317.75ZM1406.64 398V359.258H1392.43V351.797H1430.46V359.258H1416.32V398H1406.64ZM1485.52 398.717C1479.16 398.717 1474.11 397.187 1470.38 394.126C1466.7 391.017 1464.85 386.521 1464.85 380.638V351.797H1474.54V379.92C1474.54 383.46 1475.5 386.114 1477.41 387.884C1479.32 389.606 1482.03 390.467 1485.52 390.467C1489.01 390.467 1491.69 389.606 1493.55 387.884C1495.47 386.114 1496.42 383.46 1496.42 379.92V351.797H1506.11V380.638C1506.11 386.521 1504.27 391.017 1500.58 394.126C1496.9 397.187 1491.88 398.717 1485.52 398.717ZM1543.32 398V351.797H1553.08L1566.64 379.562L1580.2 351.797H1589.88V398H1580.2V367.939L1569.44 390.036H1563.84L1553.01 367.939V398H1543.32Z" fill="white"/>
</svg>
