<svg width="251" height="65" viewBox="0 0 251 65" fill="none" xmlns="http://www.w3.org/2000/svg">
    <path d="M36.0547 43.0111L-0.000918359 63.8278V22.1943L36.0547 43.0111Z" fill="#D9D9D9"/>
    <path d="M36.0859 43.009L72.168 22.1935V63.8267L36.0859 43.009Z" fill="#49416D"/>
    <path d="M72.1641 22.194L36.0819 43.0109V1.37744L72.1641 22.194Z" fill="#8C92AC"/>
    <path d="M0 22.1946L36.0821 1.3778L36.0821 43.0112L0 22.1946Z" fill="#A1CCA5"/>
    <path d="M36.0859 43.011L0.00382614 63.8266L0.00382614 22.1934L36.0859 43.011Z" fill="#8C92AC"/>
    <path d="M87.6315 44V23.1019H80.0358V18.1185H101.698V23.1019H94.1019V44H87.6315ZM107.921 44.4019C106.715 44.4019 105.59 44.1875 104.545 43.7589C103.527 43.3302 102.71 42.6738 102.094 41.7896C101.478 40.8787 101.169 39.7534 101.169 38.4138C101.169 36.4579 101.826 34.9307 103.139 33.8323C104.478 32.707 106.474 32.1443 109.127 32.1443H114.432V31.7023C114.432 30.7377 114.11 30.0545 113.467 29.6526C112.824 29.224 111.618 29.0096 109.85 29.0096C107.68 29.0096 105.55 29.3445 103.46 30.0143V25.8347C104.398 25.4596 105.537 25.1515 106.876 24.9104C108.243 24.6692 109.676 24.5487 111.176 24.5487C114.124 24.5487 116.428 25.1515 118.089 26.3572C119.777 27.5628 120.621 29.4785 120.621 32.1041V44H114.954L114.633 42.3925C113.936 43.0355 113.038 43.5311 111.94 43.8794C110.868 44.2277 109.529 44.4019 107.921 44.4019ZM109.971 40.4232C110.989 40.4232 111.873 40.2491 112.623 39.9008C113.373 39.5525 113.976 39.1104 114.432 38.5745V35.8819H109.85C107.948 35.8819 106.997 36.6455 106.997 38.1726C106.997 38.8692 107.238 39.4185 107.72 39.8204C108.202 40.2223 108.953 40.4232 109.971 40.4232ZM131.574 44.4019C130.047 44.4019 128.6 44.2947 127.234 44.0804C125.867 43.866 124.782 43.5981 123.978 43.2766V38.3334C124.916 38.7353 126.001 39.0434 127.234 39.2577C128.466 39.4721 129.565 39.5792 130.529 39.5792C131.681 39.5792 132.512 39.5257 133.021 39.4185C133.557 39.3113 133.825 39.0166 133.825 38.5343C133.825 37.9985 133.396 37.5966 132.539 37.3287C131.681 37.0608 130.502 36.6723 129.002 36.1632C127.26 35.547 125.934 34.837 125.023 34.0332C124.139 33.2026 123.697 31.9836 123.697 30.376C123.697 28.5006 124.394 27.0672 125.787 26.0758C127.207 25.0577 129.457 24.5487 132.539 24.5487C133.744 24.5487 134.937 24.6424 136.115 24.83C137.294 25.0175 138.259 25.2319 139.009 25.473V30.3358C138.259 29.9875 137.401 29.733 136.437 29.5723C135.472 29.4115 134.602 29.3311 133.825 29.3311C132.833 29.3311 131.989 29.3981 131.293 29.5321C130.623 29.6392 130.288 29.9206 130.288 30.376C130.288 30.8851 130.663 31.2468 131.413 31.4611C132.164 31.6487 133.249 31.9702 134.669 32.4257C136.169 32.8811 137.334 33.3768 138.165 33.9126C138.996 34.4217 139.585 35.0379 139.933 35.7613C140.282 36.4847 140.456 37.3957 140.456 38.4941C140.456 40.3964 139.706 41.8566 138.205 42.8747C136.705 43.8928 134.494 44.4019 131.574 44.4019ZM143.732 44V16.9128H150.202V31.0592L156.431 24.9506H163.786L156.15 32.8677L164.228 44H157.356L152.091 36.2838L150.202 38.1324V44H143.732ZM165.867 44V18.1185H184.675V23.1019H172.337V28.5273H183.188V33.5911H172.337V44H165.867ZM193.046 44.4019C190.956 44.4019 189.455 43.9464 188.544 43.0355C187.633 42.1245 187.178 40.6643 187.178 38.6549V16.9128H193.648V38.0119C193.648 38.6281 193.769 39.0568 194.01 39.2979C194.278 39.5123 194.666 39.6194 195.176 39.6194C195.899 39.6194 196.542 39.5257 197.105 39.3381V43.7187C196.488 43.9598 195.872 44.134 195.256 44.2411C194.666 44.3483 193.93 44.4019 193.046 44.4019ZM209.467 44.4019C205.797 44.4019 203.091 43.5579 201.349 41.87C199.608 40.1553 198.737 37.6904 198.737 34.4753C198.737 31.287 199.608 28.8355 201.349 27.1207C203.117 25.406 205.824 24.5487 209.467 24.5487C213.138 24.5487 215.844 25.406 217.585 27.1207C219.354 28.8355 220.238 31.287 220.238 34.4753C220.238 37.6904 219.367 40.1553 217.626 41.87C215.884 43.5579 213.165 44.4019 209.467 44.4019ZM209.467 39.3381C210.968 39.3381 212.039 38.963 212.682 38.2128C213.325 37.4626 213.647 36.2168 213.647 34.4753C213.647 32.7338 213.325 31.4879 212.682 30.7377C212.039 29.9875 210.968 29.6124 209.467 29.6124C207.994 29.6124 206.935 29.9875 206.292 30.7377C205.649 31.4879 205.328 32.7338 205.328 34.4753C205.328 36.2168 205.649 37.4626 206.292 38.2128C206.935 38.963 207.994 39.3381 209.467 39.3381ZM225.935 44L220.911 24.9506H227.261L229.833 35.8819L232.526 27.5628V24.9506H237.389L240.523 35.8819L243.015 24.9506H249.365L244.341 44H238.474L235.219 34.1136L231.883 44H225.935Z" fill="#8C92AC"/>
    <path d="M89.4033 60.8281V53.7561H92.9832C93.6934 53.7561 94.2205 53.9244 94.5646 54.2612C94.916 54.5906 95.0917 55.0592 95.0917 55.6668C95.0917 56.0475 95.0185 56.366 94.8721 56.6222C94.7256 56.8711 94.528 57.0651 94.2791 57.2042C94.6085 57.3067 94.8684 57.4788 95.0587 57.7204C95.2564 57.9546 95.3552 58.3024 95.3552 58.7636C95.3552 59.4445 95.1612 59.9606 94.7732 60.312C94.3925 60.6561 93.8398 60.8281 93.115 60.8281H89.4033ZM90.8858 56.6881H92.7087C93.0674 56.6881 93.3237 56.6112 93.4774 56.4575C93.6312 56.2964 93.708 56.0731 93.708 55.7876C93.708 55.4728 93.6275 55.2386 93.4664 55.0848C93.3127 54.9311 93.0235 54.8542 92.5989 54.8542H90.8858V56.6881ZM90.8858 59.741H92.7636C93.137 59.741 93.4115 59.6641 93.5872 59.5103C93.7629 59.3566 93.8508 59.0857 93.8508 58.6977C93.8508 58.3829 93.7629 58.1486 93.5872 57.9949C93.4188 57.8412 93.1114 57.7643 92.6648 57.7643H90.8858V59.741ZM104.105 60.9379C101.813 60.9379 100.667 59.7336 100.667 57.325C100.667 56.0292 100.957 55.0921 101.535 54.5138C102.113 53.9354 102.97 53.6462 104.105 53.6462C105.239 53.6462 106.096 53.9354 106.674 54.5138C107.253 55.0921 107.542 56.0292 107.542 57.325C107.542 59.7336 106.396 60.9379 104.105 60.9379ZM104.105 59.6751C104.771 59.6751 105.258 59.4847 105.565 59.104C105.88 58.716 106.037 58.123 106.037 57.325C106.037 56.4392 105.88 55.8169 105.565 55.4582C105.258 55.0921 104.771 54.9091 104.105 54.9091C103.438 54.9091 102.948 55.0921 102.633 55.4582C102.326 55.8169 102.172 56.4392 102.172 57.325C102.172 58.123 102.326 58.716 102.633 59.104C102.948 59.4847 103.438 59.6751 104.105 59.6751ZM116.296 60.9379C114.005 60.9379 112.859 59.7336 112.859 57.325C112.859 56.0292 113.148 55.0921 113.727 54.5138C114.305 53.9354 115.161 53.6462 116.296 53.6462C117.431 53.6462 118.288 53.9354 118.866 54.5138C119.444 55.0921 119.733 56.0292 119.733 57.325C119.733 59.7336 118.588 60.9379 116.296 60.9379ZM116.296 59.6751C116.962 59.6751 117.449 59.4847 117.757 59.104C118.072 58.716 118.229 58.123 118.229 57.325C118.229 56.4392 118.072 55.8169 117.757 55.4582C117.449 55.0921 116.962 54.9091 116.296 54.9091C115.63 54.9091 115.14 55.0921 114.825 55.4582C114.517 55.8169 114.363 56.4392 114.363 57.325C114.363 58.123 114.517 58.716 114.825 59.104C115.14 59.4847 115.63 59.6751 116.296 59.6751ZM127.467 60.9379C127.013 60.9379 126.588 60.905 126.193 60.8391C125.805 60.7732 125.468 60.678 125.182 60.5536V59.2468C125.505 59.3786 125.852 59.4847 126.226 59.5653C126.599 59.6458 126.965 59.6861 127.324 59.6861C127.836 59.6861 128.213 59.6385 128.455 59.5433C128.696 59.4481 128.817 59.2322 128.817 58.8954C128.817 58.6831 128.766 58.5147 128.664 58.3902C128.561 58.2658 128.382 58.156 128.125 58.0608C127.877 57.9583 127.521 57.8448 127.06 57.7204C126.321 57.5154 125.801 57.2591 125.501 56.9517C125.201 56.6442 125.051 56.2196 125.051 55.6778C125.051 55.0262 125.289 54.5248 125.764 54.1734C126.24 53.8219 126.932 53.6462 127.84 53.6462C128.265 53.6462 128.66 53.6755 129.026 53.7341C129.392 53.7927 129.688 53.8622 129.915 53.9427V55.2495C129.315 55.0226 128.689 54.9091 128.038 54.9091C127.576 54.9091 127.214 54.9604 126.95 55.0629C126.687 55.158 126.555 55.363 126.555 55.6778C126.555 55.8608 126.603 56.0073 126.698 56.1171C126.793 56.2269 126.954 56.3257 127.181 56.4136C127.415 56.5014 127.741 56.6003 128.158 56.7101C128.737 56.8638 129.183 57.0468 129.498 57.2591C129.813 57.4715 130.029 57.713 130.146 57.9839C130.27 58.2548 130.333 58.5586 130.333 58.8954C130.333 59.5103 130.098 60.0045 129.63 60.3779C129.161 60.7513 128.44 60.9379 127.467 60.9379ZM137.267 60.8281V54.8981H135.092V53.7561H140.912V54.8981H138.749V60.8281H137.267ZM153.148 60.8281V53.7561H154.641L156.717 58.0059L158.792 53.7561H160.275V60.8281H158.792V56.2269L157.145 59.6092H156.288L154.63 56.2269V60.8281H153.148ZM169.243 60.9379C166.952 60.9379 165.806 59.7336 165.806 57.325C165.806 56.0292 166.095 55.0921 166.674 54.5138C167.252 53.9354 168.108 53.6462 169.243 53.6462C170.378 53.6462 171.235 53.9354 171.813 54.5138C172.391 55.0921 172.68 56.0292 172.68 57.325C172.68 59.7336 171.535 60.9379 169.243 60.9379ZM169.243 59.6751C169.909 59.6751 170.396 59.4847 170.704 59.104C171.019 58.716 171.176 58.123 171.176 57.325C171.176 56.4392 171.019 55.8169 170.704 55.4582C170.396 55.0921 169.909 54.9091 169.243 54.9091C168.577 54.9091 168.087 55.0921 167.772 55.4582C167.464 55.8169 167.31 56.4392 167.31 57.325C167.31 58.123 167.464 58.716 167.772 59.104C168.087 59.4847 168.577 59.6751 169.243 59.6751ZM178.217 60.8281V53.7561H179.711L181.786 58.0059L183.862 53.7561H185.344V60.8281H183.862V56.2269L182.214 59.6092H181.358L179.7 56.2269V60.8281H178.217ZM191.095 60.8281V53.7561H196.169V54.9091H192.578V56.7211H195.762V57.8631H192.578V59.6861H196.169V60.8281H191.095ZM201.7 60.8281V53.7561H202.984L206.334 58.4671V53.7561H207.816V60.8281H206.531L203.182 56.1171V60.8281H201.7ZM215.304 60.8281V54.8981H213.13V53.7561H218.95V54.8981H216.787V60.8281H215.304ZM227.378 60.9379C226.404 60.9379 225.632 60.7037 225.061 60.2351C224.497 59.7593 224.215 59.0711 224.215 58.1706V53.7561H225.698V58.0608C225.698 58.6025 225.844 59.0089 226.137 59.2797C226.43 59.5433 226.844 59.6751 227.378 59.6751C227.913 59.6751 228.323 59.5433 228.608 59.2797C228.901 59.0089 229.047 58.6025 229.047 58.0608V53.7561H230.53V58.1706C230.53 59.0711 230.248 59.7593 229.684 60.2351C229.121 60.7037 228.352 60.9379 227.378 60.9379ZM236.226 60.8281V53.7561H237.719L239.795 58.0059L241.87 53.7561H243.353V60.8281H241.87V56.2269L240.223 59.6092H239.367L237.708 56.2269V60.8281H236.226Z" fill="white"/>
</svg>
